<?xml version="1.0" encoding="utf-8" ?>
<svg baseProfile="full" height="100%" version="1.1" viewBox="0,0,1000,80" width="100%" xmlns="http://www.w3.org/2000/svg" xmlns:ev="http://www.w3.org/2001/xml-events" xmlns:xlink="http://www.w3.org/1999/xlink"><defs /><rect fill="white" height="80" width="1000" x="0" y="0" /><path d="M0,0 M371.7945251464844,35.01778793334961 L371.7983703613281,35.470245361328125 L371.7933654785156,36.43133544921875 L371.763427734375,37.9927864074707 L371.6844177246094,40.086612701416016 L371.55877685546875,42.633033752441406 L371.4004821777344,45.51153564453125 L371.2403564453125,48.56792068481445 L371.1251220703125,51.62907791137695 L371.0915222167969,54.48365020751953 L371.1373596191406,56.916419982910156 L371.2601318359375,58.77202606201172 L371.44140625,59.8147087097168 L371.6524658203125,59.92415237426758 L371.8890380859375,59.149139404296875 L372.0950012207031,58.054847717285156 L372.2306213378906,57.128604888916016 M369.7730407714844,32.59031677246094 L369.7784423828125,32.61186218261719 L369.9002380371094,32.88597106933594 L370.214599609375,33.556514739990234 L370.7782287597656,34.66360855102539 L371.58148193359375,36.06272506713867 L372.56646728515625,37.55253601074219 L373.67816162109375,38.950103759765625 L374.8750305175781,40.11884307861328 L376.12152099609375,40.940555572509766 L377.40301513671875,41.313499450683594 L378.7101745605469,41.16474151611328 L380.02142333984375,40.475467681884766 L381.29583740234375,39.282737731933594 L382.48870849609375,37.68303680419922 L383.56536865234375,35.837623596191406 L384.4823913574219,33.9645881652832 L385.2132263183594,32.28520202636719 L385.75872802734375,30.990816116333008 L386.11798095703125,30.20416259765625 L386.30194091796875,30.0 L386.3318176269531,30.42057991027832 L386.20916748046875,31.526071548461914 L385.9415283203125,33.30918884277344 L385.561279296875,35.691463470458984 L385.1184997558594,38.53569793701172 L384.6641540527344,41.655818939208984 L384.2779541015625,44.848655700683594 L384.0107421875,47.94379806518555 L383.89483642578125,50.7572135925293 L383.9295959472656,53.134010314941406 L384.0845947265625,54.98467254638672 L384.35162353515625,56.21500778198242 L384.7418212890625,56.810604095458984 L385.2460632324219,56.83821105957031 L385.72161865234375,56.57305908203125 L386.06329345703125,56.26738739013672 M395.43255615234375,46.46994400024414 L395.2239074707031,46.09370040893555 L394.8055419921875,45.59088134765625 L394.1347351074219,45.153602600097656 L393.2325134277344,45.049232482910156 L392.127197265625,45.382938385009766 L390.9115905761719,46.19208526611328 L389.71844482421875,47.4250373840332 L388.7118835449219,48.97426223754883 L388.0287780761719,50.68098831176758 L387.7396240234375,52.34379196166992 L387.84881591796875,53.772674560546875 L388.3136901855469,54.82249450683594 L389.06243896484375,55.398277282714844 L390.0175476074219,55.4422492980957 L391.11383056640625,54.93840408325195 L392.271240234375,53.898460388183594 L393.41558837890625,52.39568328857422 L394.48516845703125,50.581565856933594 L395.42425537109375,48.656002044677734 L396.18255615234375,46.847991943359375 L396.7308654785156,45.351280212402344 L397.0462646484375,44.30703353881836 L397.12554931640625,43.818607330322266 L397.01251220703125,43.951080322265625 L396.7822570800781,44.7247200012207 L396.5203552246094,46.09487533569336 L396.31890869140625,47.92192459106445 L396.2440185546875,49.99909210205078 L396.32928466796875,52.105369567871094 L396.59967041015625,54.03868865966797 L397.03948974609375,55.6613883972168 L397.6214599609375,56.7889404296875 L398.2880554199219,57.30591583251953 L398.9678955078125,57.186466217041016 L399.50518798828125,56.743438720703125 L399.8375244140625,56.28308868408203 M403.2898864746094,34.1169548034668 L403.34210205078125,34.28550720214844 L403.40228271484375,34.81523132324219 L403.4290771484375,35.8741569519043 L403.38134765625,37.515228271484375 L403.2535095214844,39.66716003417969 L403.0641784667969,42.17973327636719 L402.86553955078125,44.858177185058594 L402.6973876953125,47.502716064453125 L402.5835266113281,49.900875091552734 L402.5344543457031,51.8671760559082 L402.5387878417969,53.28287124633789 L402.64306640625,54.01087951660156 L402.89404296875,54.02723693847656 L403.3150634765625,53.41114044189453 L403.7574157714844,52.59223175048828 L404.09698486328125,51.92340087890625 M407.7367248535156,45.8170051574707 L407.57763671875,45.72907257080078 L407.1854248046875,45.776206970214844 L406.4793701171875,46.128211975097656 L405.47540283203125,46.91556167602539 L404.28704833984375,48.08638381958008 L403.10528564453125,49.50032424926758 L402.154052734375,50.96913528442383 L401.6243896484375,52.34209060668945 L401.6299133300781,53.49578094482422 L402.2039489746094,54.34191131591797 L403.3158874511719,54.82435607910156 L404.8641357421875,54.922847747802734 L406.68695068359375,54.65070724487305 L408.593017578125,54.05879211425781 L410.3990173339844,53.205928802490234 L411.9565734863281,52.14250946044922 L413.18780517578125,50.93474578857422 L414.0610046386719,49.675716400146484 L414.587158203125,48.48752212524414 L414.81402587890625,47.507328033447266 L414.8297119140625,46.8615837097168 L414.7239990234375,46.633522033691406 L414.5770568847656,46.87116241455078 L414.4261474609375,47.58509826660156 L414.2884826660156,48.73052978515625 L414.1672058105469,50.19660568237305 L414.0912780761719,51.83585739135742 L414.07708740234375,53.44417190551758 L414.1333923339844,54.83116149902344 L414.21563720703125,55.79237365722656 L414.28594970703125,56.30154037475586 M414.9234619140625,38.01460266113281 L414.9710693359375,38.10004425048828 L415.0589599609375,38.36223602294922 L415.15478515625,38.69710159301758 L415.22601318359375,39.00055694580078 M419.1490783691406,49.521121978759766 L419.11688232421875,50.00659942626953 L419.057861328125,50.88473129272461 L418.9749755859375,52.081974029541016 L418.89678955078125,53.35860824584961 L418.8432922363281,54.537288665771484 L418.8282470703125,55.46356201171875 L418.87261962890625,56.041873931884766 L418.98272705078125,56.1909065246582 L419.17877197265625,55.83952331542969 L419.50897216796875,54.95695114135742 L420.0275573730469,53.61238479614258 L420.763427734375,51.97365188598633 L421.7194519042969,50.27265930175781 L422.8334045410156,48.7327766418457 L424.0174255371094,47.52146911621094 L425.17230224609375,46.74568557739258 L426.22369384765625,46.480064392089844 L427.0783996582031,46.74131393432617 L427.6659851074219,47.49796676635742 L427.9515380859375,48.67807388305664 L427.95257568359375,50.165225982666016 L427.74554443359375,51.82573699951172 L427.45501708984375,53.51728820800781 L427.23284912109375,55.038963317871094 L427.20074462890625,56.203224182128906 L427.4355773925781,56.91384506225586 L427.7832946777344,57.220340728759766 L428.09283447265625,57.27277374267578 M437.68621826171875,49.000282287597656 L437.6055603027344,48.494964599609375 L437.28564453125,47.84541320800781 L436.621337890625,47.290077209472656 L435.6160888671875,47.14997863769531 L434.413330078125,47.497467041015625 L433.2168884277344,48.30158996582031 L432.2431640625,49.43457794189453 L431.6405029296875,50.7413215637207 L431.4914855957031,52.016700744628906 L431.8152770996094,53.08112716674805 L432.5473327636719,53.78855514526367 L433.5909118652344,54.051082611083984 L434.836669921875,53.83509826660156 L436.1590576171875,53.15227508544922 L437.42724609375,52.069244384765625 L438.5250244140625,50.74689483642578 L439.3431091308594,49.37638473510742 L439.83966064453125,48.161739349365234 L440.0434875488281,47.26863479614258 L440.0314636230469,46.815704345703125 L439.9156188964844,46.874778747558594 L439.79150390625,47.49831008911133 L439.72052001953125,48.67342758178711 L439.7434997558594,50.32108688354492 L439.8703918457031,52.309112548828125 L440.07904052734375,54.4947509765625 L440.3392028808594,56.75613021850586 L440.5837707519531,58.98151397705078 L440.74066162109375,61.06903076171875 L440.732421875,62.913795471191406 L440.4820251464844,64.42487335205078 L439.9415283203125,65.55802917480469 L439.09844970703125,66.30934143066406 L437.9980773925781,66.6977310180664 L436.73785400390625,66.77133178710938 L435.436767578125,66.57014465332031 L434.21490478515625,66.12108612060547 L433.1901550292969,65.45648193359375 L432.4541320800781,64.6064224243164 L432.09002685546875,63.613704681396484 L432.1484375,62.55048370361328 L432.64495849609375,61.498802185058594 L433.539794921875,60.53299331665039 L434.7530822753906,59.70854187011719 L436.1891784667969,59.06278991699219 L437.7235107421875,58.5972900390625 L439.2550354003906,58.303489685058594 L440.68109130859375,58.158451080322266 L441.9096984863281,58.122013092041016 L442.7779541015625,58.13658905029297 L443.26483154296875,58.16509246826172 M462.17584228515625,46.94147872924805 L462.1676025390625,47.18525314331055 L462.1513671875,47.76020812988281 L462.139404296875,48.759090423583984 L462.1209411621094,50.13782501220703 L462.0931396484375,51.7822265625 L462.05377197265625,53.497291564941406 L462.01470947265625,55.074588775634766 L461.9843444824219,56.345489501953125 L461.97906494140625,57.1859245300293 L461.97442626953125,57.497230529785156 L461.9644775390625,57.24631118774414 L461.9645690917969,56.416038513183594 L462.00836181640625,55.057228088378906 L462.1522216796875,53.311790466308594 L462.45391845703125,51.363224029541016 L462.953125,49.42339324951172 L463.6453857421875,47.6989631652832 L464.497802734375,46.3402099609375 L465.4200439453125,45.451026916503906 L466.323486328125,45.08945846557617 L467.1474914550781,45.27471160888672 L467.855224609375,45.99195861816406 L468.4047546386719,47.18130111694336 L468.76947021484375,48.72300338745117 L468.91717529296875,50.44520568847656 L468.864013671875,52.13825225830078 L468.6908264160156,53.62317657470703 L468.4770812988281,54.745460510253906 L468.29986572265625,55.388938903808594 L468.2090759277344,55.470252990722656 L468.22613525390625,54.960227966308594 L468.391357421875,53.887451171875 L468.7616271972656,52.39068603515625 L469.3624267578125,50.678077697753906 L470.2039794921875,48.989784240722656 L471.22418212890625,47.529441833496094 L472.33251953125,46.459625244140625 L473.4239807128906,45.86852264404297 L474.4034729003906,45.7995719909668 L475.20086669921875,46.252079010009766 L475.7923583984375,47.19310760498047 L476.154296875,48.522621154785156 L476.32440185546875,50.11689758300781 L476.3655090332031,51.80911636352539 L476.35711669921875,53.40311813354492 L476.37109375,54.724143981933594 L476.41790771484375,55.61066818237305 L476.46881103515625,56.059932708740234 M479.5855712890625,46.09614181518555 L479.6078186035156,46.11612319946289 L479.69873046875,46.26567077636719 L479.8901672363281,46.64551544189453 L480.19146728515625,47.309085845947266 L480.59075927734375,48.221981048583984 L481.08477783203125,49.2881965637207 L481.67779541015625,50.36985397338867 L482.3922424316406,51.34501647949219 L483.2337951660156,52.10258865356445 L484.1759033203125,52.55153274536133 L485.1764221191406,52.629638671875 L486.193115234375,52.3062744140625 L487.19195556640625,51.5946159362793 L488.13592529296875,50.572139739990234 L488.9851379394531,49.38526153564453 L489.68231201171875,48.22529602050781 L490.19158935546875,47.25608825683594 L490.4978332519531,46.6016731262207 L490.5914306640625,46.335025787353516 L490.46795654296875,46.506446838378906 L490.10369873046875,47.1934814453125 L489.4698181152344,48.44984817504883 L488.588623046875,50.24818420410156 L487.5233459472656,52.51543426513672 L486.3540344238281,55.12309265136719 L485.19110107421875,57.94459533691406 L484.1129150390625,60.849632263183594 L483.2010498046875,63.68284606933594 L482.535400390625,66.22357177734375 L482.159423828125,68.28190612792969 L482.01593017578125,69.63883972167969 L482.01458740234375,70.32745361328125 M500.24139404296875,44.723262786865234 L500.2066650390625,44.72822952270508 L500.1250305175781,44.9444465637207 L499.9698486328125,45.55732727050781 L499.73968505859375,46.70376968383789 L499.4486389160156,48.34320831298828 L499.15924072265625,50.308448791503906 L498.96832275390625,52.34476089477539 L498.99072265625,54.18788528442383 L499.29559326171875,55.617103576660156 L499.8977355957031,56.48064041137695 L500.74224853515625,56.68855667114258 L501.7607421875,56.243412017822266 L502.8697509765625,55.2194938659668 L503.9884033203125,53.78727722167969 L505.017578125,52.205162048339844 L505.8599548339844,50.72460174560547 L506.4515075683594,49.54679870605469 L506.78509521484375,48.79400634765625 L506.90802001953125,48.504764556884766 L506.88336181640625,48.683719635009766 L506.78375244140625,49.334590911865234 L506.68328857421875,50.39751434326172 L506.67279052734375,51.7506217956543 L506.833251953125,53.198814392089844 L507.23724365234375,54.529178619384766 L507.90240478515625,55.55547332763672 L508.81439208984375,56.163639068603516 L509.92144775390625,56.28475570678711 L511.1480712890625,55.887081146240234 L512.3902587890625,54.97097396850586 L513.5477905273438,53.595577239990234 L514.5088500976562,51.871826171875 L515.1905517578125,49.965431213378906 L515.5568237304688,48.05768966674805 L515.5941772460938,46.30098342895508 L515.3290405273438,44.84877014160156 L514.85595703125,43.81327819824219 L514.285400390625,43.23677444458008 L513.8018188476562,43.024139404296875 L513.506591796875,43.02288818359375 M523.537109375,47.49784469604492 L523.47705078125,47.09493637084961 L523.2447509765625,46.49202346801758 L522.7352905273438,45.85841369628906 L521.9041748046875,45.485679626464844 L520.7879028320312,45.541526794433594 L519.5074462890625,46.133140563964844 L518.2269897460938,47.237796783447266 L517.114013671875,48.74545669555664 L516.3236083984375,50.45859146118164 L515.974365234375,52.141780853271484 L516.1171264648438,53.5713005065918 L516.7474975585938,54.581947326660156 L517.8006591796875,55.06712341308594 L519.1566162109375,54.97673416137695 L520.6700439453125,54.32305908203125 L522.17724609375,53.18389129638672 L523.534912109375,51.711124420166016 L524.6363525390625,50.11424255371094 L525.41552734375,48.606651306152344 L525.8753051757812,47.35627365112305 L526.055908203125,46.465354919433594 L526.0169677734375,45.984920501708984 L525.8368530273438,45.94472885131836 L525.5706787109375,46.366329193115234 L525.2537841796875,47.243431091308594 L524.9492797851562,48.50611877441406 L524.7034301757812,50.02397537231445 L524.6150512695312,51.63606262207031 L524.7620849609375,53.154327392578125 L525.15673828125,54.42390823364258 L525.610107421875,55.28633499145508 L525.9710083007812,55.7337532043457 M531.2973022460938,46.68105697631836 L531.3353881835938,46.96515655517578 L531.412841796875,47.504425048828125 L531.552490234375,48.29041290283203 L531.7715454101562,49.20561599731445 L532.111083984375,50.14403533935547 L532.6065063476562,50.99332809448242 L533.2774658203125,51.652427673339844 L534.1429443359375,52.05620574951172 L535.1966552734375,52.147953033447266 L536.38623046875,51.88632583618164 L537.63525390625,51.2544059753418 L538.8569946289062,50.31143569946289 L539.9359130859375,49.190399169921875 L540.79833984375,48.086769104003906 L541.4005737304688,47.1748161315918 L541.7135620117188,46.59815216064453 L541.7285766601562,46.44111251831055 L541.45361328125,46.78886032104492 L540.85546875,47.70552062988281 L539.9660034179688,49.21153259277344 L538.840576171875,51.2526741027832 L537.5656127929688,53.71963882446289 L536.2526245117188,56.45220947265625 L535.0095825195312,59.34515380859375 L533.9105224609375,62.2175407409668 L533.0330810546875,64.88008880615234 L532.4521484375,66.87915802001953 L532.152587890625,68.05009460449219 M555.8934936523438,47.37921905517578 L555.7315673828125,47.021419525146484 L555.37451171875,46.539031982421875 L554.7540893554688,46.099308013916016 L553.8516845703125,45.94956970214844 L552.6671142578125,46.198448181152344 L551.2791748046875,46.90966033935547 L549.8310546875,48.049110412597656 L548.5098876953125,49.53359603881836 L547.5032958984375,51.20561981201172 L546.9537353515625,52.874168395996094 L546.922607421875,54.36705780029297 L547.3961181640625,55.556156158447266 L548.295166015625,56.327796936035156 L549.5044555664062,56.604393005371094 L550.9049072265625,56.33506774902344 L552.3773193359375,55.49736785888672 L553.833740234375,54.11540603637695 L555.208251953125,52.252986907958984 L556.4552001953125,49.99727249145508 L557.5614624023438,47.48229217529297 L558.513916015625,44.85266876220703 L559.29736328125,42.26349639892578 L559.9197998046875,39.887168884277344 L560.3837280273438,37.863258361816406 L560.70458984375,36.28913116455078 L560.90966796875,35.24359130859375 L560.99365234375,34.764244079589844 L560.9461669921875,34.87577819824219 L560.7675170898438,35.62384033203125 L560.4678955078125,37.005332946777344 L560.0941772460938,38.94660949707031 L559.6952514648438,41.33171844482422 L559.30078125,43.987274169921875 L558.9403076171875,46.71049499511719 L558.6351318359375,49.30385971069336 L558.4564819335938,51.565189361572266 L558.4699096679688,53.32020568847656 L558.6998291015625,54.49825668334961 L559.0076904296875,55.1322135925293 L559.2698974609375,55.37498092651367 M568.2485961914062,47.737178802490234 L568.0966796875,47.386436462402344 L567.7318725585938,46.955230712890625 L567.1011962890625,46.65235137939453 L566.2178955078125,46.73702621459961 L565.1737670898438,47.28003692626953 L564.1133422851562,48.25705337524414 L563.210205078125,49.54491424560547 L562.6231079101562,50.96631622314453 L562.4677734375,52.33304214477539 L562.761962890625,53.45734405517578 L563.4721069335938,54.19892883300781 L564.5071411132812,54.47615051269531 L565.745849609375,54.26301574707031 L567.0455322265625,53.5635871887207 L568.2481079101562,52.44733810424805 L569.1697387695312,51.02556610107422 L569.6744384765625,49.461917877197266 L569.6824951171875,47.94915771484375 L569.2192993164062,46.6639404296875 L568.412841796875,45.78081130981445 L567.456298828125,45.38660430908203 L566.5404052734375,45.46023178100586 L565.8746337890625,45.761592864990234 L565.5081787109375,46.068145751953125 M573.723388671875,45.44019317626953 L573.6061401367188,45.407554626464844 L573.38818359375,45.52138900756836 L573.0660400390625,45.91954803466797 L572.6935424804688,46.70909118652344 L572.3430786132812,47.864078521728516 L572.1000366210938,49.27964401245117 L572.0445556640625,50.799560546875 L572.24169921875,52.2609977722168 L572.6961669921875,53.48516082763672 L573.388916015625,54.33024215698242 L574.27783203125,54.69318389892578 L575.2955932617188,54.51467514038086 L576.3824462890625,53.80512237548828 L577.4715576171875,52.63676452636719 L578.4806518554688,51.1529541015625 L579.3365478515625,49.57003402709961 L579.9901123046875,48.11772918701172 L580.4122314453125,46.963558197021484 L580.62451171875,46.23677444458008 L580.6560668945312,46.00383377075195 L580.5320434570312,46.295780181884766 L580.2860717773438,47.11367416381836 L579.9969482421875,48.3782958984375 L579.7626953125,49.90098190307617 L579.6980590820312,51.465614318847656 L579.885009765625,52.84340286254883 L580.3630981445312,53.867801666259766 L581.111328125,54.44852828979492 L582.0799560546875,54.54099655151367 L583.187255859375,54.14167785644531 L584.3273315429688,53.303871154785156 L585.386962890625,52.11811447143555 L586.2735595703125,50.73664855957031 L586.9179077148438,49.322853088378906 L587.2863159179688,48.0113639831543 L587.4091796875,46.90549850463867 L587.3563232421875,46.068603515625 L587.2237548828125,45.521324157714844 L587.1013793945312,45.23750305175781 L587.0333251953125,45.1402587890625 M591.9364013671875,44.93633270263672 L591.9210205078125,45.10622787475586 L591.8614501953125,45.55101013183594 L591.7367553710938,46.35197448730469 L591.54736328125,47.49545669555664 L591.3209228515625,48.875709533691406 L591.089111328125,50.32791519165039 L590.8978271484375,51.68113327026367 L590.7647094726562,52.79872512817383 L590.7039794921875,53.5750617980957 L590.730224609375,53.951114654541016 L590.85888671875,53.881492614746094 L591.11474609375,53.330909729003906 L591.5181274414062,52.29656219482422 L592.070556640625,50.86370849609375 L592.7753295898438,49.19514846801758 L593.627197265625,47.50796890258789 L594.599853515625,45.99645233154297 L595.638427734375,44.80348587036133 L596.6749267578125,44.009498596191406 L597.6192016601562,43.66206359863281 L598.4100952148438,43.785423278808594 L599.0185546875,44.38153839111328 L599.416748046875,45.39607238769531 L599.581787109375,46.733558654785156 L599.54345703125,48.2745475769043 L599.336181640625,49.88151168823242 L599.031005859375,51.42823791503906 L598.748046875,52.76229476928711 L598.5701293945312,53.7386589050293 L598.5443725585938,54.27106857299805 L598.6226806640625,54.4461784362793 L598.7261962890625,54.41791534423828 M607.697265625,34.82875442504883 L607.738525390625,34.80339050292969 L607.788330078125,34.98944091796875 L607.8165283203125,35.56106948852539 L607.78955078125,36.65355682373047 L607.70166015625,38.22998809814453 L607.5429077148438,40.1800651550293 L607.3441772460938,42.36677551269531 L607.1251220703125,44.662261962890625 L606.9169921875,46.91004180908203 L606.75146484375,48.98933410644531 L606.6429443359375,50.78330612182617 L606.5838012695312,52.15609359741211 L606.5625,53.024322509765625 L606.557373046875,53.37914276123047 L606.5577392578125,53.38373947143555 L606.559814453125,53.24760055541992 M602.8001098632812,45.37752914428711 L602.9813232421875,45.37813949584961 L603.4677124023438,45.38080596923828 L604.3721313476562,45.38273620605469 L605.7285766601562,45.39337158203125 L607.4864501953125,45.41576385498047 L609.5364990234375,45.45458221435547 L611.7310791015625,45.5052490234375 L613.9036865234375,45.54722595214844 L615.8394775390625,45.545101165771484 L617.3251953125,45.46490478515625 L618.23486328125,45.34720993041992 L618.636474609375,45.23893737792969 M620.4376220703125,46.13179397583008 L620.346435546875,45.9056510925293 L620.0884399414062,45.56812286376953 L619.566162109375,45.232383728027344 L618.7158203125,45.09763717651367 L617.5438232421875,45.2976188659668 L616.15576171875,45.8882942199707 L614.750244140625,46.860469818115234 L613.5732421875,48.12711715698242 L612.8316650390625,49.54080581665039 L612.6602783203125,50.94279861450195 L613.099609375,52.168212890625 L614.1188354492188,53.08073043823242 L615.622802734375,53.6038818359375 L617.4625244140625,53.691162109375 L619.42236328125,53.30961990356445 L621.260986328125,52.48188400268555 L622.7482299804688,51.275089263916016 L623.726318359375,49.82654571533203 L624.1107177734375,48.306854248046875 L623.937255859375,46.887489318847656 L623.3059692382812,45.69248962402344 L622.364501953125,44.81937789916992 L621.2715454101562,44.31295394897461 L620.2261962890625,44.22264099121094 L619.388427734375,44.509315490722656 L618.8982543945312,45.08150100708008 L618.716552734375,45.667694091796875 L618.727783203125,46.088077545166016 M627.9537353515625,45.373619079589844 L627.7169799804688,45.7994384765625 L627.3554077148438,46.621429443359375 L626.9624633789062,47.84413528442383 L626.6802978515625,49.30887985229492 L626.6006469726562,50.86402893066406 L626.77001953125,52.33671569824219 L627.176025390625,53.57645797729492 L627.7810668945312,54.43900680541992 L628.5460815429688,54.825645446777344 L629.428466796875,54.66047286987305 L630.4132690429688,53.941734313964844 L631.439208984375,52.750572204589844 L632.41015625,51.253074645996094 L633.2108154296875,49.6800651550293 L633.7646484375,48.26019287109375 L634.0811157226562,47.1458854675293 L634.2090454101562,46.436302185058594 L634.2111206054688,46.17288589477539 L634.1353149414062,46.36146545410156 L634.0130004882812,47.01655960083008 L633.8906860351562,48.09808349609375 L633.8564453125,49.47357940673828 L633.9813232421875,50.9775505065918 L634.3348388671875,52.41944122314453 L634.9412841796875,53.62565231323242 L635.7801513671875,54.49753189086914 L636.8138427734375,54.97227096557617 L637.9785766601562,54.997413635253906 L639.179443359375,54.568458557128906 L640.3155517578125,53.7153205871582 L641.2825927734375,52.51972961425781 L641.98193359375,51.046058654785156 L642.400146484375,49.416011810302734 L642.5684204101562,47.76247024536133 L642.5844116210938,46.44181823730469 L642.54638671875,45.62352752685547 M645.8673095703125,45.838775634765625 L646.2374267578125,45.985198974609375 L646.7474365234375,46.27703857421875 L647.260009765625,46.732330322265625 L647.5750122070312,47.34408950805664 L647.668212890625,48.11924362182617 L647.5387573242188,49.07998275756836 L647.236083984375,50.213008880615234 L646.8111572265625,51.451908111572266 L646.3544921875,52.68271255493164 L645.937744140625,53.78266906738281 L645.630859375,54.63136291503906 L645.4671630859375,55.14215087890625 L645.491943359375,55.24519348144531 L645.7360229492188,54.90837097167969 L646.219970703125,54.13945388793945 L646.9127197265625,53.02051544189453 L647.7637939453125,51.680606842041016 L648.7178344726562,50.25313949584961 L649.75927734375,48.8714485168457 L650.8800048828125,47.65055465698242 L652.0498046875,46.67505645751953 L653.2156982421875,46.02342224121094 L654.297607421875,45.74112319946289 L655.2222900390625,45.83362579345703 L655.9439697265625,46.295013427734375 L656.4482421875,47.09800720214844 L656.74267578125,48.194549560546875 L656.8753662109375,49.517333984375 L656.8896484375,50.95213317871094 L656.8402099609375,52.377071380615234 L656.782958984375,53.687957763671875 L656.7537841796875,54.790008544921875 L656.777587890625,55.62921905517578 L656.8355712890625,56.16273880004883 L656.8914794921875,56.42155838012695 " fill="none" stroke="black" stroke-linecap="round" stroke-width="2" /></svg>