<?xml version="1.0" encoding="utf-8" ?>
<svg baseProfile="full" height="100%" version="1.1" viewBox="0,0,1000,160" width="100%" xmlns="http://www.w3.org/2000/svg" xmlns:ev="http://www.w3.org/2001/xml-events" xmlns:xlink="http://www.w3.org/1999/xlink"><defs /><rect fill="white" height="160" width="1000" x="0" y="0" /><path d="M0,0 M328.4178161621094,47.11122512817383 L328.4268798828125,47.08760070800781 L328.43389892578125,47.058345794677734 L328.43585205078125,47.032588958740234 M357.1424560546875,38.69788360595703 L357.1765441894531,39.00226593017578 L357.19903564453125,39.73420333862305 L357.1497802734375,41.01256561279297 L357.0005798339844,42.808143615722656 L356.7582092285156,45.00956726074219 L356.5065002441406,47.435203552246094 L356.35516357421875,49.878902435302734 L356.4144287109375,52.139381408691406 L356.69903564453125,54.03927993774414 L357.1534118652344,55.42695236206055 L357.6773681640625,56.197994232177734 L358.233154296875,56.29090118408203 L358.82745361328125,55.69371032714844 L359.503173828125,54.46858215332031 L360.2682800292969,52.80006408691406 L361.0478515625,50.9836540222168 L361.7424621582031,49.313934326171875 L362.2615051269531,48.0207633972168 L362.5651550292969,47.24995040893555 L362.70489501953125,47.066436767578125 L362.8060302734375,47.481964111328125 L363.0196838378906,48.51020812988281 L363.44482421875,50.02144241333008 L364.12872314453125,51.771507263183594 L365.059326171875,53.46257019042969 L366.27728271484375,54.837928771972656 L367.813232421875,55.6873779296875 L369.70477294921875,55.926666259765625 L371.84368896484375,55.481651306152344 L374.04791259765625,54.37172317504883 L376.03753662109375,52.7071533203125 L377.63714599609375,50.71935272216797 L378.7590637207031,48.66107177734375 L379.465576171875,46.75737380981445 L379.8311767578125,45.11592102050781 L379.98931884765625,43.79096221923828 L380.07257080078125,42.781578063964844 L380.2513122558594,42.07149124145508 L380.63800048828125,41.62226867675781 L381.29559326171875,41.42948913574219 L382.1501159667969,41.47468185424805 L383.0701599121094,41.726715087890625 L383.81134033203125,42.0374870300293 L384.2691345214844,42.28970718383789 M386.8333740234375,49.32297897338867 L387.2767333984375,49.4327278137207 L388.0599365234375,49.545223236083984 L389.10809326171875,49.568973541259766 L390.2516784667969,49.400177001953125 L391.3952941894531,49.016143798828125 L392.4336242675781,48.42810821533203 L393.2575378417969,47.665470123291016 L393.8334655761719,46.80031204223633 L394.09930419921875,45.91567611694336 L394.04779052734375,45.11202621459961 L393.6510009765625,44.5268669128418 L392.8095703125,44.28678512573242 L391.43243408203125,44.51129913330078 L389.572265625,45.28324890136719 L387.40216064453125,46.580047607421875 L385.2873840332031,48.25441360473633 L383.65960693359375,50.11626434326172 L382.8069763183594,51.93693542480469 L382.85821533203125,53.55504608154297 L383.7479248046875,54.84033966064453 L385.2473449707031,55.69767379760742 L387.1578369140625,56.076297760009766 L389.3023376464844,56.02397155761719 L391.5757141113281,55.56634521484375 L393.8664855957031,54.809627532958984 L396.04693603515625,53.85346221923828 L397.70965576171875,52.99184799194336 L398.70849609375,52.40208053588867 M406.5832824707031,31.300508499145508 L406.7135009765625,31.38136863708496 L406.80584716796875,31.7889461517334 L406.68695068359375,32.681182861328125 L406.2121887207031,34.12444305419922 L405.45404052734375,35.94954299926758 L404.614013671875,37.91609191894531 L403.9676208496094,39.51282501220703 L403.6261901855469,40.50835037231445 M414.7329406738281,41.97838592529297 L414.5389404296875,42.37697219848633 L414.2109680175781,43.16754913330078 L413.777587890625,44.35479736328125 L413.298095703125,45.82429885864258 L412.76995849609375,47.49141311645508 L412.17230224609375,49.28632354736328 L411.47760009765625,51.10885238647461 L410.7816162109375,52.788856506347656 L410.2095031738281,54.134830474853516 L409.8506164550781,55.03215789794922 L409.7347717285156,55.477500915527344 L409.76312255859375,55.50758361816406 L409.8377685546875,55.13689041137695 L409.94293212890625,54.33816146850586 L410.1361083984375,53.135616302490234 L410.4844665527344,51.65409469604492 L411.07098388671875,50.07237243652344 L411.9034423828125,48.52595138549805 L412.9682922363281,47.077274322509766 L414.22503662109375,45.770931243896484 L415.608642578125,44.709442138671875 L416.9361267089844,43.974693298339844 L418.0337219238281,43.59983825683594 L418.7579650878906,43.57826614379883 L419.05767822265625,43.80292510986328 L419.03936767578125,44.188926696777344 L418.905029296875,44.58002853393555 L418.7745666503906,44.85940170288086 M422.4378662109375,49.842342376708984 L422.66802978515625,49.81816864013672 L423.1343688964844,49.65540313720703 L423.8698425292969,49.247886657714844 L424.8323059082031,48.534610748291016 L425.93548583984375,47.543087005615234 L427.0610656738281,46.333927154541016 L428.0931396484375,45.03959655761719 L428.89306640625,43.794734954833984 L429.3479919433594,42.74393844604492 L429.3980712890625,42.01382064819336 L428.9668884277344,41.734947204589844 L428.0875549316406,41.984134674072266 L426.815673828125,42.82722473144531 L425.34185791015625,44.22031021118164 L423.8976745605469,46.0181884765625 L422.77081298828125,47.96794891357422 L422.174560546875,49.855228424072266 L422.3221435546875,51.49849319458008 L423.1430969238281,52.80644607543945 L424.6296691894531,53.745147705078125 L426.57611083984375,54.333866119384766 L428.72674560546875,54.61687088012695 L430.50384521484375,54.70857238769531 L431.6544494628906,54.71044158935547 M450.4336242675781,43.407264709472656 L450.4629211425781,43.37327575683594 L450.48956298828125,43.50032043457031 L450.50653076171875,43.95444107055664 L450.492919921875,44.8836669921875 L450.468017578125,46.273441314697266 L450.419921875,47.97860336303711 L450.36968994140625,49.8026008605957 L450.3209228515625,51.53645706176758 L450.3014831542969,53.006351470947266 L450.32586669921875,54.12726974487305 L450.373046875,54.79267501831055 L450.4476013183594,54.89186477661133 L450.6478271484375,54.362571716308594 L451.0501403808594,53.19639587402344 L451.7491149902344,51.5346794128418 L452.81732177734375,49.67422866821289 L454.15972900390625,47.88386917114258 L455.68206787109375,46.384098052978516 L457.27197265625,45.30017852783203 L458.79095458984375,44.67301940917969 L460.1322021484375,44.51869583129883 L461.251953125,44.85267639160156 L462.0612487792969,45.6469612121582 L462.5394287109375,46.86819076538086 L462.64111328125,48.41778564453125 L462.39190673828125,50.14386749267578 L461.8955078125,51.87058639526367 L461.3447265625,53.387447357177734 L460.9296875,54.53873825073242 L460.79522705078125,55.26775360107422 L460.85443115234375,55.62126922607422 L460.9886474609375,55.72371292114258 M472.7394714355469,45.588523864746094 L472.46014404296875,45.25044631958008 L471.9977722167969,44.8453369140625 L471.34967041015625,44.564266204833984 L470.55950927734375,44.648216247558594 L469.58673095703125,45.18406295776367 L468.4477233886719,46.180824279785156 L467.24322509765625,47.52245330810547 L466.1932067871094,49.06898498535156 L465.5274658203125,50.58966064453125 L465.43829345703125,51.84086608886719 L465.9803466796875,52.65513229370117 L467.12493896484375,52.92418670654297 L468.7183837890625,52.590003967285156 L470.61279296875,51.68963623046875 L472.63665771484375,50.33583068847656 L474.563232421875,48.72861862182617 L476.1253662109375,47.11150360107422 L477.106689453125,45.696998596191406 L477.34173583984375,44.55839538574219 L476.904296875,43.70939254760742 L476.0457763671875,43.1345329284668 L475.07305908203125,42.82059860229492 L474.314208984375,42.70228576660156 L473.89727783203125,42.711673736572266 M499.8559265136719,42.67824935913086 L499.57958984375,42.54924774169922 L498.98382568359375,42.430179595947266 L498.0038757324219,42.44460678100586 L496.7074279785156,42.72569274902344 L495.2421875,43.32208251953125 L493.8704528808594,44.2158203125 L492.86279296875,45.32904052734375 L492.4397888183594,46.58036804199219 L492.64752197265625,47.89524841308594 L493.431884765625,49.21973419189453 L494.6231994628906,50.509578704833984 L495.98101806640625,51.70934295654297 L497.23760986328125,52.72673416137695 L498.1749267578125,53.50222396850586 L498.56207275390625,54.02972412109375 L498.34222412109375,54.37792205810547 L497.5299072265625,54.62665939331055 L496.24676513671875,54.839569091796875 L494.66986083984375,55.011802673339844 L493.08673095703125,55.03522872924805 L491.73931884765625,54.812808990478516 L490.8382263183594,54.30306625366211 L490.3870849609375,53.72078323364258 L490.267333984375,53.261104583740234 M506.7218017578125,37.341285705566406 L506.9780578613281,37.745758056640625 L507.24591064453125,38.53791809082031 L507.39373779296875,39.724483489990234 L507.276611328125,41.21391677856445 L506.95050048828125,42.9212646484375 L506.5113525390625,44.79533386230469 L506.13702392578125,46.77389907836914 L505.87841796875,48.758888244628906 L505.77203369140625,50.60619354248047 L505.75799560546875,52.19091033935547 L505.77484130859375,53.29027557373047 L505.7767639160156,53.88774490356445 M499.68719482421875,45.29972839355469 L499.8377685546875,45.29963684082031 L500.26873779296875,45.265472412109375 L501.1363830566406,45.15586853027344 L502.47998046875,44.95714569091797 L504.22119140625,44.69707489013672 L506.1117248535156,44.4481315612793 L507.8983154296875,44.27085876464844 L509.4534912109375,44.14598846435547 L510.75,44.02481460571289 L511.80181884765625,43.87007141113281 L512.5474853515625,43.71432876586914 L512.9697265625,43.600120544433594 M515.1782836914062,45.09440231323242 L515.3197631835938,45.615257263183594 L515.5344848632812,46.61028289794922 L515.7404174804688,48.05547332763672 L515.8076782226562,49.73045349121094 L515.7068481445312,51.399654388427734 L515.4794921875,52.82494354248047 L515.2238159179688,53.87482452392578 L515.0498657226562,54.486087799072266 L514.9826049804688,54.66831970214844 L514.9825439453125,54.43137741088867 L515.0325927734375,53.75495910644531 L515.1280517578125,52.63163375854492 L515.3173828125,51.16033935546875 L515.7156372070312,49.495391845703125 L516.3772583007812,47.81875228881836 L517.3578491210938,46.27025604248047 L518.6605224609375,44.95505142211914 L520.2398071289062,43.93232345581055 L521.9623413085938,43.25872039794922 L523.668701171875,42.964508056640625 L525.1270751953125,43.00983428955078 L526.229248046875,43.30224609375 L526.8976440429688,43.64764404296875 L527.2125244140625,43.90641403198242 M533.1961059570312,44.37281799316406 L533.2201538085938,44.25460433959961 L533.1788330078125,44.13622283935547 L532.9697265625,44.10651779174805 L532.4827270507812,44.30883026123047 L531.6339721679688,44.836769104003906 L530.4561157226562,45.76655578613281 L529.0953369140625,47.09461975097656 L527.8152465820312,48.68489456176758 L526.878173828125,50.273433685302734 L526.4969482421875,51.588687896728516 L526.6973266601562,52.42588806152344 L527.4083251953125,52.68368911743164 L528.487548828125,52.366153717041016 L529.806640625,51.545963287353516 L531.1974487304688,50.32899856567383 L532.5453491210938,48.8845100402832 L533.6829833984375,47.42918014526367 L534.52490234375,46.14320373535156 L535.0521240234375,45.13884353637695 L535.29443359375,44.49979782104492 L535.2907104492188,44.292083740234375 L535.09228515625,44.580875396728516 L534.6832275390625,45.441646575927734 L534.1564331054688,46.85255813598633 L533.6267700195312,48.61878204345703 L533.206298828125,50.50580596923828 L533.008056640625,52.28895950317383 L533.1355590820312,53.71208953857422 L533.59130859375,54.624088287353516 L534.3601684570312,54.972686767578125 L535.1398315429688,54.92466354370117 L535.7062377929688,54.71966552734375 M539.7242431640625,45.43431091308594 L539.6646728515625,45.34040832519531 L539.658203125,45.314544677734375 L539.7691650390625,45.480140686035156 L539.9965209960938,45.971866607666016 L540.2158203125,46.78501510620117 L540.3482666015625,47.814979553222656 L540.3872680664062,48.88172912597656 L540.3568115234375,49.84532165527344 L540.3442993164062,50.584102630615234 L540.385498046875,51.05912780761719 L540.4697265625,51.201133728027344 L540.613525390625,50.958282470703125 L540.9058837890625,50.27293014526367 L541.398681640625,49.1920280456543 L542.1505737304688,47.86093521118164 L543.172119140625,46.49945831298828 L544.4073486328125,45.27346420288086 L545.7836303710938,44.32516098022461 L547.25732421875,43.73362731933594 L548.7451171875,43.55333709716797 L550.1470947265625,43.840850830078125 L551.3494873046875,44.61200714111328 L552.2137451171875,45.81201934814453 L552.6488037109375,47.34954833984375 L552.630126953125,49.068519592285156 L552.198974609375,50.75619125366211 L551.50634765625,52.24742889404297 L550.746337890625,53.331417083740234 L550.091064453125,53.886619567871094 L549.6732177734375,53.906253814697266 L549.4890747070312,53.63697814941406 L549.449462890625,53.314788818359375 M564.1761474609375,46.58164596557617 L564.228759765625,46.49775695800781 L564.119384765625,46.40082550048828 L563.6442260742188,46.383689880371094 L562.6242065429688,46.591041564941406 L561.0989990234375,47.10320281982422 L559.3071899414062,47.933753967285156 L557.6691284179688,48.965091705322266 L556.5504150390625,49.96686553955078 L556.2142944335938,50.73012924194336 L556.654296875,51.084163665771484 L557.7322998046875,50.95884704589844 L559.2056884765625,50.38447952270508 L560.8257446289062,49.460418701171875 L562.3094482421875,48.30799102783203 L563.47998046875,47.10271072387695 L564.1953735351562,45.99814224243164 L564.4542236328125,45.12841796875 L564.3051147460938,44.604366302490234 L563.9071044921875,44.5158576965332 L563.419677734375,44.910804748535156 L563.0079345703125,45.772682189941406 L562.8007202148438,47.067955017089844 L562.8446655273438,48.684967041015625 L563.04638671875,50.51730728149414 L563.2637939453125,52.49256896972656 L563.3331298828125,54.563941955566406 L563.1255493164062,56.651039123535156 L562.5748291015625,58.71818161010742 L561.6616821289062,60.67298889160156 L560.407958984375,62.399314880371094 L558.834228515625,63.775516510009766 L557.0009765625,64.58959197998047 L555.095703125,64.68598175048828 L553.2864379882812,64.08431243896484 L551.91650390625,63.227989196777344 L551.127197265625,62.50459289550781 M566.6053466796875,50.179630279541016 L567.1354370117188,50.19532775878906 L568.09716796875,50.15583038330078 L569.3599243164062,50.006614685058594 L570.634033203125,49.688175201416016 L571.7341918945312,49.214744567871094 L572.48681640625,48.625152587890625 L572.9386596679688,48.002079010009766 L573.1863403320312,47.41830062866211 L573.2018432617188,46.93174362182617 L572.9149169921875,46.57085037231445 L572.233154296875,46.37929153442383 L571.0784912109375,46.42802429199219 L569.5826416015625,46.788360595703125 L567.98828125,47.47395706176758 L566.5422973632812,48.44263458251953 L565.5089111328125,49.604820251464844 L565.07177734375,50.82416534423828 L565.307861328125,51.96134567260742 L566.1934814453125,52.88080978393555 L567.67822265625,53.418243408203125 L569.6099243164062,53.50851058959961 L571.8189697265625,53.19892883300781 L573.707275390625,52.748443603515625 L574.9495849609375,52.37425994873047 M580.2779541015625,46.976219177246094 L580.180908203125,47.26594161987305 L579.9893188476562,47.92111587524414 L579.7217407226562,48.946311950683594 L579.4432373046875,50.18259048461914 L579.21435546875,51.397377014160156 L579.0599365234375,52.36890411376953 L578.9745483398438,52.96466827392578 L578.971923828125,53.13987350463867 L579.1392211914062,52.852596282958984 L579.5975341796875,52.12440490722656 L580.44287109375,51.03373336791992 L581.7032470703125,49.737388610839844 L583.2615356445312,48.446895599365234 L584.9310302734375,47.31658172607422 L586.295166015625,46.51930618286133 L587.145263671875,46.08185577392578 M599.2955932617188,46.62400436401367 L599.0545654296875,46.54524230957031 L598.4339599609375,46.48569869995117 L597.291748046875,46.50678253173828 L595.7421875,46.6643180847168 L594.0416259765625,46.95646667480469 L592.5419921875,47.34871292114258 L591.6034545898438,47.82902526855469 L591.3978881835938,48.439735412597656 L591.9136962890625,49.19708251953125 L593.0435180664062,50.08053970336914 L594.47802734375,50.9686279296875 L595.9205322265625,51.76084899902344 L597.1258544921875,52.44647216796875 L597.8682861328125,53.13934326171875 L598.0480346679688,53.96611404418945 L597.6404418945312,55.017845153808594 L596.6892700195312,56.179115295410156 L595.4537353515625,57.337196350097656 L594.2376708984375,58.291259765625 L593.3011474609375,58.90830993652344 L592.7764892578125,59.12575912475586 L592.5888061523438,59.08962631225586 L592.572509765625,58.93932342529297 M616.2064819335938,30.0 L616.1769409179688,30.270278930664062 L616.1129150390625,30.919801712036133 L615.9921875,32.056419372558594 L615.8553466796875,33.67263412475586 L615.7086181640625,35.66060256958008 L615.5750732421875,37.887420654296875 L615.502685546875,40.165225982666016 L615.5020751953125,42.339019775390625 L615.5638427734375,44.28961181640625 L615.69384765625,45.993309020996094 L615.773193359375,47.467342376708984 L615.6702880859375,48.690494537353516 L615.3338623046875,49.56155776977539 L614.7847900390625,50.00804138183594 L614.2400512695312,50.10340118408203 L613.8712768554688,50.013885498046875 M611.3248291015625,44.14311981201172 L611.5809326171875,43.945594787597656 L612.15185546875,43.690242767333984 L613.183349609375,43.47257995605469 L614.6614990234375,43.42134094238281 L616.4822998046875,43.53424835205078 L618.1046142578125,43.711647033691406 L619.201416015625,43.858909606933594 M632.9853515625,47.94285202026367 L632.7479248046875,47.79605484008789 L632.332275390625,47.540313720703125 L631.7177734375,47.18903732299805 L630.9155883789062,46.82169723510742 L629.9158935546875,46.53955078125 L628.7105712890625,46.44259262084961 L627.3914794921875,46.66011047363281 L626.0950927734375,47.23305130004883 L624.9810791015625,48.127891540527344 L624.1806640625,49.24098587036133 L623.83740234375,50.43836212158203 L624.038818359375,51.55271911621094 L624.8302001953125,52.446414947509766 L626.21728515625,52.94872283935547 L628.12841796875,52.97834014892578 L630.344970703125,52.516075134277344 L632.6549072265625,51.63930892944336 L634.8233642578125,50.458160400390625 L636.514892578125,49.12421417236328 L637.584228515625,47.75380325317383 L637.939697265625,46.47350311279297 L637.5819702148438,45.36128616333008 L636.688720703125,44.45564270019531 L635.451171875,43.75142288208008 L634.01416015625,43.23573684692383 L632.5823974609375,42.873409271240234 L631.4616088867188,42.65782928466797 L630.7784423828125,42.557777404785156 M653.19921875,32.80400466918945 L653.30029296875,33.13489532470703 L653.4027099609375,33.87250518798828 L653.3848876953125,35.07140350341797 L653.159912109375,36.65522384643555 L652.7249755859375,38.491451263427734 L652.1737060546875,40.500587463378906 L651.5911865234375,42.618751525878906 L651.0467529296875,44.79581832885742 L650.5368041992188,46.90746307373047 L650.1096801757812,48.80009841918945 L649.8070068359375,50.164878845214844 L649.6490478515625,50.93144989013672 M655.8533935546875,44.75567626953125 L655.8080444335938,45.0037956237793 L655.6676025390625,45.651485443115234 L655.4139404296875,46.78771209716797 L655.111083984375,48.320133209228516 L654.9132080078125,50.011802673339844 L655.0135498046875,51.60087966918945 L655.5601806640625,52.837791442871094 L656.591796875,53.569149017333984 L658.0263671875,53.720733642578125 L659.6757202148438,53.32002639770508 L661.279052734375,52.45896911621094 L662.6165771484375,51.296382904052734 L663.4470825195312,49.952880859375 L663.653076171875,48.55570983886719 L663.202392578125,47.236026763916016 L662.1197509765625,46.1363410949707 L660.5360107421875,45.3375129699707 L658.7052001953125,44.88544464111328 L656.9051513671875,44.769744873046875 L655.555908203125,44.97401809692383 L654.9405517578125,45.44865036010742 L655.10986328125,46.09574508666992 L655.6763916015625,46.681087493896484 L656.24560546875,47.06278991699219 M669.5377197265625,45.48576736450195 L669.5628662109375,45.731231689453125 L669.5701904296875,46.21125030517578 L669.5584106445312,46.96564865112305 L669.5156860351562,47.972225189208984 L669.4773559570312,49.18281173706055 L669.459228515625,50.47129821777344 L669.4586181640625,51.667762756347656 L669.4853515625,52.589473724365234 L669.5816650390625,53.11296081542969 L669.7921142578125,53.19797134399414 L670.2354736328125,52.820762634277344 L671.0197143554688,51.98651885986328 L672.1294555664062,50.753997802734375 L673.5087890625,49.238494873046875 L674.9960327148438,47.59015655517578 L676.4215087890625,45.95952224731445 L677.6865234375,44.4655876159668 L678.7434692382812,43.207008361816406 L679.468017578125,42.331321716308594 L679.87353515625,41.85752868652344 M679.4389038085938,49.906795501708984 L679.803466796875,49.95585250854492 L680.599853515625,49.9322509765625 L681.8670654296875,49.746822357177734 L683.4588623046875,49.3261604309082 L685.192138671875,48.735008239746094 L686.8126220703125,48.0022087097168 L688.1184692382812,47.2346076965332 L688.925048828125,46.46733093261719 L689.129638671875,45.77203369140625 L688.685546875,45.248016357421875 L687.669921875,45.07645797729492 L686.1395874023438,45.35015869140625 L684.340576171875,46.16526794433594 L682.49853515625,47.429786682128906 L680.9581298828125,48.999141693115234 L680.0111694335938,50.677268981933594 L679.9085083007812,52.32685089111328 L680.65673828125,53.811492919921875 L682.170654296875,55.11259841918945 L684.214599609375,56.14884567260742 L686.484130859375,56.88239669799805 L688.6641845703125,57.2763786315918 L690.326171875,57.4144172668457 L691.296630859375,57.395973205566406 " fill="none" stroke="black" stroke-linecap="round" stroke-width="2" /><path d="M0,0 M408.16229248046875,88.25630187988281 L407.63372802734375,88.15938568115234 L406.7435302734375,88.15946960449219 L405.61712646484375,88.38554382324219 L404.5732727050781,88.91960906982422 L403.8562316894531,89.71976470947266 L403.6426086425781,90.69549560546875 L403.9482727050781,91.7628402709961 L404.7557678222656,92.91019439697266 L405.9024658203125,94.10394287109375 L407.23309326171875,95.29439544677734 L408.576171875,96.43031311035156 L409.74920654296875,97.44850158691406 L410.5660095214844,98.31136322021484 L410.84906005859375,99.00310516357422 L410.4458312988281,99.49586486816406 L409.38623046875,99.79785919189453 L407.75115966796875,99.89871978759766 L405.7408142089844,99.79808807373047 L403.6160583496094,99.50881958007812 L401.62188720703125,98.97956085205078 L400.0126953125,98.21580505371094 L399.0174865722656,97.30418395996094 L398.56903076171875,96.49714660644531 L398.4906005859375,95.96295928955078 M421.4551696777344,90.56739044189453 L421.0950622558594,90.33160400390625 L420.41058349609375,90.00272369384766 L419.3667907714844,89.71854400634766 L417.9828796386719,89.69669342041016 L416.23565673828125,90.09195709228516 L414.2484130859375,91.01396179199219 L412.21661376953125,92.42344665527344 L410.4515380859375,94.17015838623047 L409.2227783203125,96.0121078491211 L408.6654052734375,97.70391845703125 L408.7415771484375,99.06253814697266 L409.3868103027344,100.00924682617188 L410.47900390625,100.44196319580078 L411.93682861328125,100.2843246459961 L413.64459228515625,99.44815063476562 L415.4716796875,97.91703796386719 L417.2294921875,95.75813293457031 L418.8102722167969,93.14684295654297 L420.1308898925781,90.26678466796875 L421.2119140625,87.33402252197266 L422.0727233886719,84.50077056884766 L422.74224853515625,81.89988708496094 L423.2392578125,79.66873168945312 L423.6104431152344,77.91560363769531 L423.85894775390625,76.7116928100586 L423.983642578125,76.11233520507812 L423.9803466796875,76.15186309814453 L423.88079833984375,76.85699462890625 L423.76885986328125,78.27135467529297 L423.6966857910156,80.31095886230469 L423.6700439453125,82.78681945800781 L423.6568603515625,85.46549987792969 L423.6348876953125,88.15718841552734 L423.6476135253906,90.71965789794922 L423.75689697265625,93.08889770507812 L423.99176025390625,95.12138366699219 L424.3631896972656,96.647216796875 L424.8437194824219,97.56037139892578 L425.2742004394531,97.94866943359375 L425.57464599609375,98.00284576416016 M436.2161865234375,91.49101257324219 L436.43359375,91.02484893798828 L436.99786376953125,90.19432830810547 L437.95916748046875,89.03166961669922 L439.252685546875,87.65162658691406 L440.725830078125,86.04749298095703 L442.22412109375,84.2072525024414 L443.62445068359375,82.16387939453125 L444.8470153808594,79.97833251953125 L445.73345947265625,77.78573608398438 L446.16937255859375,75.7064208984375 L446.0916748046875,73.84300231933594 L445.5459289550781,72.26101684570312 L444.638427734375,71.06640625 L443.5227966308594,70.29290008544922 L442.2817077636719,70.0 L440.9934387207031,70.2244644165039 L439.71722412109375,71.01118469238281 L438.5262451171875,72.36691284179688 L437.46826171875,74.30599975585938 L436.60125732421875,76.72059631347656 L435.9384765625,79.48065185546875 L435.47967529296875,82.41494750976562 L435.19439697265625,85.41629028320312 L434.99981689453125,88.37571716308594 L434.8040771484375,91.23987579345703 L434.56683349609375,93.92797088623047 L434.2614440917969,96.32757568359375 L433.97979736328125,98.29254150390625 L433.81268310546875,99.7643051147461 L433.8211669921875,100.66129302978516 L433.9378662109375,101.0787582397461 L434.08355712890625,101.19386291503906 M430.8580017089844,92.45471954345703 L430.9979248046875,92.45818328857422 L431.3283386230469,92.48531341552734 L431.89007568359375,92.5341567993164 L432.7293395996094,92.57635498046875 L433.86602783203125,92.58154296875 L435.23345947265625,92.5209732055664 L436.4422302246094,92.42381286621094 L437.26861572265625,92.34131622314453 M445.4605712890625,80.72779083251953 L445.5417175292969,81.13165283203125 L445.6770324707031,81.94163513183594 L445.85089111328125,83.18534851074219 L446.036865234375,84.74626159667969 L446.18994140625,86.47987365722656 L446.2921447753906,88.27294921875 L446.370361328125,90.03350067138672 L446.45855712890625,91.69580841064453 L446.6100769042969,93.2229232788086 L446.8812255859375,94.60664367675781 L447.2343444824219,95.81198120117188 L447.59283447265625,96.80655670166016 L447.89508056640625,97.55259704589844 L448.0859680175781,98.04304504394531 L448.1671447753906,98.2954330444336 L448.1883850097656,98.39093017578125 M455.1927490234375,79.82139587402344 L455.3656005859375,79.87274932861328 L455.62890625,80.18544006347656 L455.87188720703125,80.89893341064453 L455.9587707519531,82.03726196289062 L455.850341796875,83.4790267944336 L455.5528869628906,85.12163543701172 L455.1016845703125,86.8775405883789 L454.5406799316406,88.75115203857422 L453.90081787109375,90.71562194824219 L453.2603454589844,92.70201873779297 L452.75970458984375,94.62651824951172 L452.4950866699219,96.3929443359375 L452.4355163574219,97.87818145751953 L452.50543212890625,99.01752471923828 L452.59942626953125,99.72987365722656 L452.64898681640625,100.06599426269531 M464.31787109375,88.80368041992188 L464.0311584472656,88.809814453125 L463.46319580078125,88.9078140258789 L462.5298156738281,89.1590805053711 L461.24139404296875,89.58966827392578 L459.64300537109375,90.18179321289062 L457.8493347167969,90.89232635498047 L456.0827331542969,91.64652252197266 L454.5819396972656,92.37226104736328 L453.4979248046875,92.99960327148438 L452.90380859375,93.47776794433594 L452.8086853027344,93.82206726074219 L453.1751708984375,94.08894348144531 L453.97979736328125,94.35624694824219 L455.2049560546875,94.6672134399414 L456.77874755859375,95.08892822265625 L458.54241943359375,95.6321029663086 L460.31097412109375,96.27947235107422 L461.93951416015625,96.98634338378906 L463.3441467285156,97.701171875 L464.5600280761719,98.2862319946289 L465.648681640625,98.6862564086914 L466.6299743652344,98.82548522949219 L467.3747863769531,98.78231048583984 L467.8325500488281,98.66736602783203 M477.78607177734375,89.59481811523438 L477.5251770019531,89.21818542480469 L476.9749755859375,88.65714263916016 L476.1270446777344,88.05126190185547 L475.02557373046875,87.60749816894531 L473.798828125,87.41034698486328 L472.60760498046875,87.50439453125 L471.65960693359375,87.89034271240234 L471.11700439453125,88.54690551757812 L471.1416320800781,89.42662811279297 L471.72882080078125,90.43621826171875 L472.85791015625,91.51789093017578 L474.3427734375,92.60352325439453 L475.9642333984375,93.6770248413086 L477.4464416503906,94.70966339111328 L478.5910339355469,95.66468811035156 L479.2408447265625,96.48136901855469 L479.3700256347656,97.14105224609375 L478.9491271972656,97.62040710449219 L477.9989013671875,97.96963500976562 L476.5682067871094,98.24212646484375 L474.7820739746094,98.47351837158203 L472.8603515625,98.65202331542969 L471.08282470703125,98.74028015136719 L469.73291015625,98.62010192871094 L468.9802551269531,98.23641967773438 L468.84063720703125,97.62000274658203 L469.03955078125,97.00188446044922 L469.3157653808594,96.55787658691406 M484.1709289550781,77.09613800048828 L484.28125,77.23639678955078 L484.421630859375,77.6587142944336 L484.56060791015625,78.49851989746094 L484.62261962890625,79.82176208496094 L484.60546875,81.57969665527344 L484.52783203125,83.68553161621094 L484.4177551269531,86.00696563720703 L484.2657470703125,88.41252136230469 L484.1238708496094,90.75164031982422 L484.03314208984375,92.90695190429688 L484.029052734375,94.73079681396484 L484.1424255371094,96.13298034667969 L484.3869323730469,97.0698471069336 L484.69256591796875,97.57621002197266 L484.99847412109375,97.75804901123047 L485.26641845703125,97.80034637451172 L485.4136047363281,97.82656860351562 L485.4490661621094,97.8959732055664 L485.40576171875,98.0103759765625 L485.34442138671875,98.09243774414062 L485.32965087890625,98.08283233642578 L485.4298400878906,97.9625244140625 L485.572265625,97.79872131347656 L485.708740234375,97.65372467041016 M503.30023193359375,80.6456527709961 L503.0844421386719,80.6434326171875 L502.6226501464844,80.72884368896484 L501.8565979003906,81.01058197021484 L500.8333740234375,81.5916976928711 L499.6411437988281,82.53792572021484 L498.4419860839844,83.86276245117188 L497.34881591796875,85.57621765136719 L496.466064453125,87.64167785644531 L495.8427429199219,89.9948959350586 L495.4744567871094,92.5095443725586 L495.3375244140625,95.03076171875 L495.37066650390625,97.40228271484375 L495.46221923828125,99.5140380859375 L495.5295715332031,101.2774658203125 L495.5614929199219,102.65211486816406 L495.50628662109375,103.49915313720703 L495.34259033203125,103.72888946533203 L495.0531311035156,103.3294448852539 L494.7354736328125,102.6648941040039 L494.47589111328125,102.06388854980469 M489.5888671875,93.39769744873047 L489.88885498046875,93.4671859741211 L490.606201171875,93.5661849975586 L491.8294677734375,93.64901733398438 L493.5757751464844,93.59228515625 L495.7242431640625,93.3151626586914 L498.0551452636719,92.78352355957031 L499.9862060546875,92.2115249633789 L501.21795654296875,91.77474212646484 M512.1412353515625,80.11051177978516 L512.1726684570312,80.44534301757812 L512.1337890625,81.23470306396484 L511.94384765625,82.557861328125 L511.5733642578125,84.3374252319336 L511.0740051269531,86.4207763671875 L510.5024719238281,88.67301177978516 L509.91485595703125,90.98638153076172 L509.3363037109375,93.32892608642578 L508.806396484375,95.6269760131836 L508.42584228515625,97.77159881591797 L508.26251220703125,99.6302261352539 L508.3979797363281,101.02974700927734 L508.8525390625,101.82925415039062 L509.59600830078125,102.0078353881836 L510.3416442871094,101.81497192382812 L510.89996337890625,101.5185317993164 M520.64697265625,91.97644805908203 L520.4682006835938,91.71138763427734 L519.9736938476562,91.38367462158203 L519.0513916015625,91.16270446777344 L517.7315673828125,91.26478576660156 L516.1533203125,91.74010467529297 L514.5943603515625,92.55111694335938 L513.3727416992188,93.56600189208984 L512.7518310546875,94.65272521972656 L512.896484375,95.7044448852539 L513.8685913085938,96.64270782470703 L515.5174560546875,97.4172592163086 L517.6121826171875,98.01118469238281 L519.8470458984375,98.44014739990234 L521.9022216796875,98.71976470947266 L523.5243530273438,98.93453979492188 L524.6167602539062,99.12480163574219 L525.15771484375,99.31182861328125 L525.3194580078125,99.4655532836914 L525.2971801757812,99.56716918945312 M531.5418701171875,90.6836929321289 L531.515869140625,90.81926727294922 L531.5172119140625,91.24679565429688 L531.5740966796875,92.08543395996094 L531.7098999023438,93.34423828125 L531.8797607421875,94.94996643066406 L532.03662109375,96.80876922607422 L532.1807861328125,98.85958862304688 L532.2936401367188,101.03314208984375 L532.3384399414062,103.24652099609375 L532.308349609375,105.37336730957031 L532.162353515625,107.28141784667969 L531.932373046875,108.84698486328125 L531.7215576171875,110.00138854980469 L531.6317138671875,110.7165756225586 L531.6253051757812,111.00213623046875 L531.636962890625,110.82339477539062 L531.523681640625,110.09270477294922 L531.2135620117188,108.73858642578125 L530.7794189453125,106.79927825927734 L530.4004516601562,104.45165252685547 L530.17333984375,101.94778442382812 L530.1767578125,99.4629135131836 L530.44775390625,97.07853698730469 L530.9889526367188,94.82221221923828 L531.822998046875,92.73313903808594 L532.938232421875,90.86717224121094 L534.2562255859375,89.28881072998047 L535.6571044921875,88.00784301757812 L537.090576171875,87.01185607910156 L538.4869384765625,86.30989837646484 L539.75439453125,85.9198989868164 L540.7767333984375,85.90320587158203 L541.4566040039062,86.32540893554688 L541.7283325195312,87.21546173095703 L541.6611938476562,88.53436279296875 L541.3668212890625,90.1575698852539 L540.9465942382812,91.86129760742188 L540.4978637695312,93.4677963256836 L540.1116943359375,94.81494903564453 L539.8433227539062,95.83687591552734 L539.722412109375,96.53007507324219 L539.7200317382812,96.92484283447266 L539.7843017578125,97.09892272949219 L539.8228149414062,97.0977783203125 L539.7959594726562,96.93231201171875 L539.6862182617188,96.60726928710938 L539.5508422851562,96.25067138671875 L539.4361572265625,95.96004486083984 M537.3718872070312,72.15853118896484 L537.338134765625,72.2884521484375 L537.3043823242188,72.6396255493164 L537.2802734375,73.0748519897461 L537.2754516601562,73.45693969726562 M548.6741943359375,76.59495544433594 L548.6129150390625,77.16229248046875 L548.5426635742188,78.23454284667969 L548.48291015625,79.80045318603516 L548.4476318359375,81.68648529052734 L548.4349365234375,83.80091094970703 L548.3803100585938,86.03850555419922 L548.206298828125,88.31365966796875 L547.8892211914062,90.55138397216797 L547.4310302734375,92.63919830322266 L546.8896484375,94.46696472167969 L546.3557739257812,95.93160247802734 L545.910888671875,96.98544311523438 L545.61474609375,97.63421630859375 L545.4959106445312,97.9640884399414 L545.4999389648438,98.0858154296875 L545.5603637695312,98.1104736328125 M554.3329467773438,79.60719299316406 L554.37060546875,79.8421630859375 L554.3339233398438,80.35635375976562 L554.18310546875,81.23247528076172 L553.865234375,82.4665298461914 L553.4005126953125,84.05638122558594 L552.8264770507812,85.95068359375 L552.2261352539062,88.0765609741211 L551.6673583984375,90.29132843017578 L551.2587890625,92.44207763671875 L551.024169921875,94.35765075683594 L550.93798828125,95.93416595458984 L550.9551391601562,97.13955688476562 L551.0406494140625,98.01470947265625 L551.2091674804688,98.5896224975586 L551.399169921875,98.91542053222656 L551.55712890625,99.05486297607422 M555.8717041015625,93.70864868164062 L555.7042236328125,93.6218490600586 L555.4033203125,93.55416107177734 L554.9453735351562,93.59944152832031 L554.377197265625,93.85363006591797 L553.737060546875,94.32390594482422 L553.103515625,95.00834655761719 L552.582275390625,95.84226989746094 L552.3136596679688,96.75192260742188 L552.3941650390625,97.6556396484375 L552.9102783203125,98.44447326660156 L553.8753051757812,99.02279663085938 L555.2811279296875,99.3375015258789 L556.9915161132812,99.37138366699219 L558.8165893554688,99.17147827148438 L560.3028564453125,98.90457153320312 L561.226806640625,98.68677520751953 M570.8428955078125,95.66851043701172 L570.7619018554688,95.25045776367188 L570.5564575195312,94.63382720947266 L570.1353149414062,93.96050262451172 L569.458251953125,93.46233367919922 L568.4776611328125,93.2533187866211 L567.197265625,93.39705657958984 L565.7155151367188,93.91424560546875 L564.2433471679688,94.76950073242188 L563.0322265625,95.88093566894531 L562.3211669921875,97.0680923461914 L562.2163696289062,98.17169952392578 L562.6718139648438,99.0110855102539 L563.5756225585938,99.46178436279297 L564.7711181640625,99.41293334960938 L566.16015625,98.83784484863281 L567.6245727539062,97.68379974365234 L569.1398315429688,96.0009994506836 L570.6475830078125,93.88628387451172 L572.0983276367188,91.53012084960938 L573.3909301757812,89.1233901977539 L574.4595947265625,86.88257598876953 L575.2000732421875,84.94229125976562 L575.6531982421875,83.39964294433594 L575.8546142578125,82.30067443847656 L575.8991088867188,81.68785095214844 L575.84912109375,81.56502532958984 L575.7520141601562,82.00239562988281 L575.5888671875,83.06617736816406 L575.3294677734375,84.7182846069336 L574.9599609375,86.84162139892578 L574.53515625,89.2231216430664 L574.1299438476562,91.61398315429688 L573.8314208984375,93.8196792602539 L573.7117309570312,95.74800109863281 L573.728759765625,97.26603698730469 L573.9228515625,98.29076385498047 L574.279052734375,98.76441192626953 L574.7706909179688,98.72096252441406 L575.2366943359375,98.41277313232422 L575.57861328125,98.10362243652344 M591.3775024414062,83.87866973876953 L591.5984497070312,82.9407730102539 L591.7516479492188,81.48190307617188 L591.626708984375,79.7713623046875 L591.0638427734375,78.26277160644531 L590.1155395507812,77.08717346191406 L588.8968505859375,76.32223510742188 L587.5809326171875,75.99198913574219 L586.2847900390625,76.14812469482422 L585.06201171875,76.88597869873047 L583.968994140625,78.24164581298828 L583.0138549804688,80.19645690917969 L582.1846923828125,82.63800811767578 L581.5508422851562,85.41742706298828 L581.17431640625,88.32561492919922 L581.0431518554688,91.16264343261719 L581.1005859375,93.69195556640625 L581.232177734375,95.73353576660156 L581.3228759765625,97.17720794677734 L581.3673706054688,98.04683685302734 L581.38671875,98.33647918701172 L581.4022827148438,98.10182189941406 L581.4237060546875,97.38502502441406 L581.4437255859375,96.55243682861328 L581.4503784179688,95.89081573486328 M578.88427734375,91.57964324951172 L578.7337646484375,91.59221649169922 L578.702392578125,91.71200561523438 L579.0117797851562,91.99147033691406 L579.8192138671875,92.4233627319336 L581.1378784179688,92.95858001708984 L582.8844604492188,93.49705505371094 L584.9242553710938,93.95924377441406 L587.1204833984375,94.30668640136719 L589.3499755859375,94.4953384399414 L591.4247436523438,94.4173583984375 L593.2843017578125,94.01434326171875 L594.8782348632812,93.25463104248047 L596.1557006835938,92.23423767089844 L597.0718383789062,91.1545181274414 L597.5870971679688,90.27759552001953 L597.6968383789062,89.73854064941406 L597.4915771484375,89.60682678222656 L597.1224975585938,89.90979766845703 L596.71875,90.65805053710938 L596.4060668945312,91.86956787109375 L596.2242431640625,93.58702850341797 L596.1865234375,95.7546615600586 L596.213623046875,98.28101348876953 L596.237548828125,101.05018615722656 L596.1680297851562,103.89385986328125 L595.944580078125,106.59635162353516 L595.4967651367188,108.95071411132812 L594.7830200195312,110.77584075927734 L593.7802124023438,111.99977111816406 L592.525390625,112.61188507080078 L591.0607299804688,112.5623550415039 L589.4907836914062,111.85946655273438 L587.938720703125,110.58827209472656 L586.7181396484375,109.27053833007812 L585.9751586914062,108.30535125732422 M598.455078125,84.56291961669922 L598.4409790039062,84.46583557128906 L598.388427734375,84.37889099121094 L598.290771484375,84.3763427734375 L598.1463012695312,84.54177856445312 L597.9910888671875,84.88690948486328 L597.9010620117188,85.47471618652344 L597.873046875,86.07844543457031 L597.8912963867188,86.54829406738281 M609.338623046875,89.65481567382812 L609.3156127929688,89.42591857910156 L609.1529541015625,89.05695343017578 L608.7742919921875,88.59758758544922 L608.1497802734375,88.18831634521484 L607.3930053710938,87.87757110595703 L606.63720703125,87.70362854003906 L606.0598754882812,87.68497467041016 L605.745361328125,87.87141418457031 L605.7445068359375,88.28620147705078 L606.066650390625,88.9887924194336 L606.712890625,89.94841003417969 L607.5546264648438,91.12178039550781 L608.4398193359375,92.43672180175781 L609.1271362304688,93.7917251586914 L609.4288330078125,95.07420349121094 L609.2622680664062,96.17688751220703 L608.6730346679688,97.00859832763672 L607.749267578125,97.53838348388672 L606.6734619140625,97.75904846191406 L605.631103515625,97.64395904541016 L604.8199462890625,97.24142456054688 L604.329833984375,96.59253692626953 L604.133544921875,95.95216369628906 L604.10986328125,95.49954986572266 M623.962646484375,79.36058807373047 L624.1050415039062,78.72544860839844 L624.2255859375,77.80984497070312 L624.1795654296875,76.80636596679688 L623.83251953125,75.99250030517578 L623.1336669921875,75.39796447753906 L622.241943359375,75.06810760498047 L621.264892578125,75.03296661376953 L620.3172607421875,75.42351531982422 L619.464599609375,76.3583984375 L618.7470092773438,77.9073715209961 L618.111572265625,80.0692367553711 L617.550537109375,82.76677703857422 L617.0001220703125,85.84908294677734 L616.4693603515625,89.14888763427734 L616.02734375,92.43942260742188 L615.8062744140625,95.47869873046875 L615.849609375,98.00563049316406 L616.1209106445312,99.84352111816406 L616.4461669921875,100.92572021484375 L616.6859130859375,101.4015884399414 M611.677490234375,90.7765884399414 L612.296630859375,90.75907897949219 L613.5074462890625,90.70137786865234 L615.3099365234375,90.60945129394531 L617.5787963867188,90.51099395751953 L620.1619262695312,90.44586181640625 L622.8552856445312,90.39881896972656 L625.0552978515625,90.36405944824219 L626.45166015625,90.3349380493164 M633.7349243164062,86.26587677001953 L633.53369140625,86.05023956298828 L632.98193359375,85.86910247802734 L632.0208740234375,85.90521240234375 L630.7783203125,86.33908081054688 L629.5503540039062,87.17540740966797 L628.6915893554688,88.29412078857422 L628.4105224609375,89.5626220703125 L628.7821044921875,90.89128112792969 L629.7667236328125,92.22354888916016 L631.2596435546875,93.47888946533203 L632.9601440429688,94.60294342041016 L634.43310546875,95.52793884277344 L635.191162109375,96.26069641113281 L634.882568359375,96.82050323486328 L633.4854736328125,97.27236938476562 L631.412109375,97.591552734375 L629.0860595703125,97.75109100341797 L626.8975830078125,97.73341369628906 L625.244140625,97.52478790283203 L624.3319091796875,97.12837219238281 L624.2361450195312,96.61505126953125 L624.65234375,96.14275360107422 L625.1690673828125,95.81301879882812 M639.07958984375,92.15239715576172 L638.8099975585938,91.97211456298828 L638.329345703125,91.78900146484375 L637.6588134765625,91.7428970336914 L636.8834228515625,91.97594451904297 L636.04833984375,92.51235961914062 L635.1995849609375,93.33901977539062 L634.419189453125,94.32967376708984 L633.775390625,95.34877014160156 L633.3621826171875,96.28329467773438 L633.2286376953125,97.00243377685547 L633.412353515625,97.44985961914062 L633.9038696289062,97.58544921875 L634.71044921875,97.2969970703125 L635.787841796875,96.47999572753906 L637.079345703125,95.12455749511719 L638.4747314453125,93.26165008544922 L639.844970703125,91.04021453857422 L641.0994873046875,88.6330337524414 L642.1900634765625,86.17415618896484 L643.0964965820312,83.79444885253906 L643.8349609375,81.67494201660156 L644.3916625976562,79.9535140991211 L644.7467041015625,78.7530288696289 L644.9436645507812,78.1222152709961 L645.0181884765625,78.09860229492188 L644.99072265625,78.72340393066406 L644.9111328125,80.07693481445312 L644.7693481445312,82.12188720703125 L644.6339111328125,84.70993041992188 L644.603759765625,87.54426574707031 L644.712646484375,90.35902404785156 L644.8441162109375,92.94857025146484 L644.8740234375,95.20936584472656 L644.670654296875,97.05636596679688 L644.358154296875,98.32794189453125 L644.0830078125,99.00621795654297 " fill="none" stroke="black" stroke-linecap="round" stroke-width="2" /><path d="M0,0 M452.87860107421875,123.76006317138672 L453.1579895019531,123.83392333984375 L453.48724365234375,123.91861724853516 L453.76214599609375,123.98748779296875 M480.3184509277344,120.33891296386719 L479.7477722167969,120.53914642333984 L478.9426574707031,120.96629333496094 L478.1568603515625,121.67948913574219 L477.725830078125,122.63970947265625 L477.8108825683594,123.79331970214844 L478.4674987792969,125.0618667602539 L479.5736083984375,126.36637115478516 L480.9877014160156,127.64453887939453 L482.5202941894531,128.8646697998047 L483.9259948730469,129.98495483398438 L485.08349609375,131.0016326904297 L485.9305725097656,131.94900512695312 L486.36383056640625,132.8564453125 L486.2816162109375,133.69049072265625 L485.5684814453125,134.37574768066406 L484.1515808105469,134.81500244140625 L482.14349365234375,134.98324584960938 L479.8282470703125,134.91282653808594 L477.53082275390625,134.64845275878906 L475.59674072265625,134.18629455566406 L474.2391662597656,133.53790283203125 L473.54425048828125,132.75308227539062 L473.3470458984375,132.0647735595703 L473.4155578613281,131.6156005859375 M491.13055419921875,126.33808898925781 L490.64617919921875,126.62151336669922 L489.875244140625,127.2171859741211 L488.94952392578125,128.17483520507812 L488.1234130859375,129.40646362304688 L487.5364990234375,130.8004913330078 L487.3883361816406,132.2323760986328 L487.6832580566406,133.53012084960938 L488.4516296386719,134.5201416015625 L489.6760559082031,135.07826232910156 L491.2528076171875,135.1002655029297 L493.0379943847656,134.5675811767578 L494.908447265625,133.52005004882812 L496.64569091796875,132.02191162109375 L498.0872497558594,130.15882873535156 L499.16534423828125,128.0582733154297 L499.86932373046875,125.83414459228516 L500.2181396484375,123.59315490722656 L500.28399658203125,121.428466796875 L500.131103515625,119.45217895507812 L499.8606262207031,117.7873306274414 L499.55926513671875,116.53597259521484 L499.3420715332031,115.74944305419922 L499.259521484375,115.47614288330078 L499.3011169433594,115.73694610595703 L499.4134216308594,116.5858154296875 L499.5496826171875,118.05099487304688 L499.62835693359375,120.03520202636719 L499.6268005371094,122.34828186035156 L499.56585693359375,124.80516052246094 L499.42901611328125,127.19075012207031 L499.26397705078125,129.37408447265625 L499.1560363769531,131.26559448242188 L499.1224365234375,132.74984741210938 L499.1761474609375,133.76708984375 L499.283447265625,134.34019470214844 L499.3624572753906,134.5663299560547 M513.4752807617188,119.78182220458984 L513.8199462890625,119.05972290039062 L514.2373046875,117.86190795898438 L514.5596313476562,116.33087158203125 L514.6304321289062,114.796142578125 L514.4691162109375,113.40718078613281 L514.0924072265625,112.28889465332031 L513.5667724609375,111.48900604248047 L512.9232177734375,111.09724426269531 L512.1990966796875,111.18101501464844 L511.4855041503906,111.81588745117188 L510.8134765625,113.03441619873047 L510.2168884277344,114.82571411132812 L509.746337890625,117.09371948242188 L509.4012756347656,119.72374725341797 L509.1942443847656,122.55885314941406 L509.1319580078125,125.47460174560547 L509.2107238769531,128.36474609375 L509.44903564453125,131.12388610839844 L509.8500671386719,133.5970916748047 L510.36712646484375,135.6350860595703 L510.93377685546875,137.08804321289062 L511.44976806640625,137.9228973388672 L511.8150634765625,138.2704315185547 L512.0112915039062,138.3363037109375 M509.332763671875,127.11969757080078 L509.7453308105469,127.15177154541016 L510.6594543457031,127.2301254272461 L511.7280578613281,127.32471466064453 L512.6040649414062,127.40547180175781 M527.1406860351562,130.17124938964844 L526.7897338867188,130.02455139160156 L526.1057739257812,130.00547790527344 L525.0679321289062,130.3196563720703 L523.7974243164062,131.1410369873047 L522.4215087890625,132.36929321289062 L521.1996459960938,133.7839813232422 L520.38037109375,135.1157684326172 L520.0970458984375,136.13352966308594 L520.3880615234375,136.71131896972656 L521.1732788085938,136.78176879882812 L522.3508911132812,136.2862548828125 L523.83251953125,135.20758056640625 L525.5276489257812,133.5959014892578 L527.2463989257812,131.5166015625 L528.8630981445312,129.14370727539062 L530.2481079101562,126.61695861816406 L531.3897705078125,124.0847396850586 L532.3150634765625,121.71702575683594 L533.0006103515625,119.6781234741211 L533.4080200195312,118.07293701171875 L533.5899658203125,117.0015869140625 L533.5965576171875,116.4795913696289 L533.52001953125,116.52877807617188 L533.38330078125,117.20298767089844 L533.1041870117188,118.56211853027344 L532.6165771484375,120.55457305908203 L531.9796752929688,123.06378936767578 L531.32177734375,125.85562896728516 L530.8126220703125,128.6927490234375 L530.5655517578125,131.37176513671875 L530.6165161132812,133.76495361328125 L530.9806518554688,135.7029571533203 L531.6641235351562,137.09686279296875 L532.6119384765625,137.88919067382812 L533.5094604492188,138.20314025878906 L534.1424560546875,138.23472595214844 M557.4432373046875,111.33888244628906 L557.1181030273438,110.90144348144531 L556.52294921875,110.38717651367188 L555.6527709960938,110.0 L554.6537475585938,110.02220153808594 L553.5390625,110.48934936523438 L552.406982421875,111.45945739746094 L551.330810546875,112.94379425048828 L550.4094848632812,114.97149658203125 L549.6697387695312,117.44091033935547 L549.1580200195312,120.23681640625 L548.71484375,123.1678237915039 L548.2741088867188,126.13140869140625 L547.767578125,129.02459716796875 L547.2673950195312,131.74923706054688 L546.8455810546875,134.1674041748047 L546.6148071289062,136.09449768066406 L546.5504150390625,137.328125 L546.6480102539062,137.83370971679688 L546.7826538085938,137.84088134765625 L546.8991088867188,137.640869140625 M543.449951171875,123.73133850097656 L543.9686889648438,123.40469360351562 L544.9935913085938,122.94020080566406 L546.1437377929688,122.4969253540039 L547.038330078125,122.23397064208984 M552.5685424804688,131.79177856445312 L552.9767456054688,131.60308837890625 L553.9302368164062,131.23629760742188 L555.52685546875,130.69793701171875 L557.660400390625,130.10707092285156 L560.0758666992188,129.59507751464844 L562.4779663085938,129.2916259765625 L564.6624145507812,129.27020263671875 L566.4130859375,129.5442352294922 L567.5731811523438,130.08258056640625 L568.0543212890625,130.87890625 L567.79248046875,131.8958282470703 L566.8433837890625,133.0550537109375 L565.3348388671875,134.190673828125 L563.4363403320312,135.16012573242188 L561.3628540039062,135.8699493408203 L559.2710571289062,136.24061584472656 L557.2806396484375,136.23150634765625 L555.52197265625,135.8633575439453 L554.2286376953125,135.361083984375 L553.4745483398438,134.931884765625 " fill="none" stroke="black" stroke-linecap="round" stroke-width="2" /></svg>