<svg xmlns="http://www.w3.org/2000/svg" viewBox="0 0 598.12 379.15"><defs><style>.cls-1,.cls-2{fill:#00b4db;}.cls-2{stroke:#00b4db;stroke-miterlimit:10;stroke-width:3px;}</style></defs><title>atlas-hackathon</title><g id="Layer_2" data-name="Layer 2"><g id="Layer_1-2" data-name="Layer 1"><path class="cls-1" d="M478.4,139.7a121.8,121.8,0,0,0-14.29.87,100.07,100.07,0,0,0-95.45-70.7,98.1,98.1,0,0,0-32.09,5.36A129.62,129.62,0,0,0,89.3,129.73a128.13,128.13,0,0,0,3.89,31.19,109.74,109.74,0,0,0,16.07,218.23H478.4a119.73,119.73,0,0,0,0-239.45Zm0,219.5H109.26a89.73,89.73,0,0,1-2.68-179.44,10,10,0,0,0,9.12-13.31A109.64,109.64,0,0,1,321.79,91.62a10,10,0,0,0,13.53,5.59,79.2,79.2,0,0,1,33.34-7.39,80,80,0,0,1,78.23,64,10,10,0,0,0,11.75,7.81,101.55,101.55,0,0,1,19.76-2,99.77,99.77,0,0,1,0,199.54Z"/><path class="cls-2" d="M107.63,309.16a1.45,1.45,0,0,1-.23.81,1.48,1.48,0,0,1-.81.54,8.44,8.44,0,0,1-1.52.35,17,17,0,0,1-2.34.14,17.31,17.31,0,0,1-2.42-.14,8.45,8.45,0,0,1-1.49-.35A1.48,1.48,0,0,1,98,310a1.38,1.38,0,0,1-.23-.81V276.09H63.84v33.07a1.45,1.45,0,0,1-.23.81,1.48,1.48,0,0,1-.81.54,8.44,8.44,0,0,1-1.52.35,17.45,17.45,0,0,1-2.39.14,17.66,17.66,0,0,1-2.37-.14,8.44,8.44,0,0,1-1.55-.35,1.48,1.48,0,0,1-.81-.54,1.45,1.45,0,0,1-.23-.81V237.6a1.45,1.45,0,0,1,.23-.81,1.48,1.48,0,0,1,.81-.54,8.44,8.44,0,0,1,1.55-.35,20.3,20.3,0,0,1,4.76,0,8.44,8.44,0,0,1,1.52.35,1.48,1.48,0,0,1,.81.54,1.45,1.45,0,0,1,.23.81v29.84H97.78V237.6a1.38,1.38,0,0,1,.23-.81,1.48,1.48,0,0,1,.81-.54,8.45,8.45,0,0,1,1.49-.35,15.89,15.89,0,0,1,2.42-.14,15.53,15.53,0,0,1,2.34.14,8.44,8.44,0,0,1,1.52.35,1.48,1.48,0,0,1,.81.54,1.45,1.45,0,0,1,.23.81Z"/><path class="cls-2" d="M162.22,309.27a1.2,1.2,0,0,1-.46,1,3.18,3.18,0,0,1-1.27.52,11.67,11.67,0,0,1-2.36.17,12.76,12.76,0,0,1-2.39-.17,2.78,2.78,0,0,1-1.3-.52,1.31,1.31,0,0,1-.4-1v-5.18a25.7,25.7,0,0,1-7.58,5.65,20.11,20.11,0,0,1-8.84,2,24.09,24.09,0,0,1-7.4-1.06,16,16,0,0,1-5.65-3.09,13.66,13.66,0,0,1-3.63-5,16.48,16.48,0,0,1-1.3-6.68,15.48,15.48,0,0,1,1.79-7.61,14.84,14.84,0,0,1,5.13-5.36,25.32,25.32,0,0,1,8.18-3.2,50.91,50.91,0,0,1,10.89-1.06h7.14v-4a20.22,20.22,0,0,0-.63-5.3,9,9,0,0,0-2-3.83,8.89,8.89,0,0,0-3.65-2.3,17.07,17.07,0,0,0-5.54-.78,21.84,21.84,0,0,0-6.3.84,32.85,32.85,0,0,0-4.9,1.84c-1.4.67-2.58,1.29-3.52,1.84a4.83,4.83,0,0,1-2.1.84,1.45,1.45,0,0,1-.81-.23,2.05,2.05,0,0,1-.6-.69,3.72,3.72,0,0,1-.38-1.18,11,11,0,0,1-.11-1.59,10.48,10.48,0,0,1,.2-2.28,3.27,3.27,0,0,1,1-1.58,12.79,12.79,0,0,1,2.68-1.76,30.24,30.24,0,0,1,4.38-1.84,38.79,38.79,0,0,1,5.41-1.38,32,32,0,0,1,5.94-.55,31.06,31.06,0,0,1,9.51,1.27,15.3,15.3,0,0,1,6.33,3.71,14.38,14.38,0,0,1,3.52,6.08,29.42,29.42,0,0,1,1.09,8.47Zm-9.45-23.68h-8.12a30.73,30.73,0,0,0-6.8.67,13.87,13.87,0,0,0-4.78,2,8.1,8.1,0,0,0-2.8,3.11,9.4,9.4,0,0,0-.89,4.17,8.37,8.37,0,0,0,2.57,6.43q2.55,2.38,7.17,2.39a13.32,13.32,0,0,0,6.94-1.9,30,30,0,0,0,6.71-5.82Z"/><path class="cls-2" d="M221.11,309.22a1.35,1.35,0,0,1-.23.78,1.73,1.73,0,0,1-.75.54,5,5,0,0,1-1.44.35,20.67,20.67,0,0,1-2.3.11,21.33,21.33,0,0,1-2.36-.11,5,5,0,0,1-1.44-.35,1.73,1.73,0,0,1-.75-.54,1.28,1.28,0,0,1-.23-.78V278.85a29.3,29.3,0,0,0-.7-7.14,14.85,14.85,0,0,0-2-4.67,8.83,8.83,0,0,0-3.43-3,10.77,10.77,0,0,0-4.87-1,12.27,12.27,0,0,0-7.14,2.53A38.33,38.33,0,0,0,186,273v36.24a1.35,1.35,0,0,1-.23.78,1.86,1.86,0,0,1-.75.54,5.21,5.21,0,0,1-1.44.35,21.67,21.67,0,0,1-2.37.11,20.67,20.67,0,0,1-2.3-.11,5.47,5.47,0,0,1-1.47-.35,1.57,1.57,0,0,1-.75-.54,1.51,1.51,0,0,1-.2-.78V257.36a1.73,1.73,0,0,1,.17-.78,1.57,1.57,0,0,1,.69-.57,4.07,4.07,0,0,1,1.33-.35,28,28,0,0,1,4.23,0,3.51,3.51,0,0,1,1.3.35,1.73,1.73,0,0,1,.66.57,1.42,1.42,0,0,1,.2.78v6.86a31.88,31.88,0,0,1,8.73-7.18,18.86,18.86,0,0,1,8.79-2.27,19.4,19.4,0,0,1,8.73,1.76,15.69,15.69,0,0,1,5.73,4.69,18.68,18.68,0,0,1,3.14,6.89,40.64,40.64,0,0,1,1,9.48Z"/><path class="cls-2" d="M280.18,309.22a1.61,1.61,0,0,1-.2.8,1.38,1.38,0,0,1-.7.55,5.37,5.37,0,0,1-1.29.32,15.42,15.42,0,0,1-2,.11,16,16,0,0,1-2-.11,5.79,5.79,0,0,1-1.32-.32,1.48,1.48,0,0,1-.75-.55,1.37,1.37,0,0,1-.23-.8v-6.86a35,35,0,0,1-8.5,6.91,19.29,19.29,0,0,1-9.65,2.48,19.92,19.92,0,0,1-9.74-2.22,18.19,18.19,0,0,1-6.54-6,26.38,26.38,0,0,1-3.66-8.87,48.53,48.53,0,0,1-1.15-10.75,46.78,46.78,0,0,1,1.44-12.07,27,27,0,0,1,4.26-9.19,19.26,19.26,0,0,1,7-5.85,21.77,21.77,0,0,1,9.65-2,17.55,17.55,0,0,1,8.33,2,29.39,29.39,0,0,1,7.46,5.84V232.47a1.68,1.68,0,0,1,.2-.78,1.34,1.34,0,0,1,.78-.57,8.63,8.63,0,0,1,1.47-.35,15.65,15.65,0,0,1,2.28-.14,16.77,16.77,0,0,1,2.36.14,7.21,7.21,0,0,1,1.44.35,1.61,1.61,0,0,1,.78.57,1.37,1.37,0,0,1,.26.78Zm-9.57-36.47a37.37,37.37,0,0,0-7.46-7.29,13,13,0,0,0-7.52-2.51,10.68,10.68,0,0,0-6.16,1.73,13.2,13.2,0,0,0-4.12,4.55,21.69,21.69,0,0,0-2.31,6.4,36.63,36.63,0,0,0-.72,7.26,47.23,47.23,0,0,0,.61,7.66,21.9,21.9,0,0,0,2.1,6.65,12.71,12.71,0,0,0,4,4.67,10.48,10.48,0,0,0,6.22,1.76,12.75,12.75,0,0,0,3.66-.52,13.73,13.73,0,0,0,3.6-1.73,27.78,27.78,0,0,0,3.86-3.14,49.23,49.23,0,0,0,4.26-4.75Z"/><path class="cls-1" d="M380.08,248a17.12,17.12,0,0,1-.78,4.93,20.45,20.45,0,0,1-2.39,5.1,25.06,25.06,0,0,1-4.13,4.86,27.72,27.72,0,0,1-6,4.2,39.81,39.81,0,0,1-8,3.1,49.36,49.36,0,0,1-10.11,1.59,18,18,0,0,1,5.71,3.27,19.5,19.5,0,0,1,3.83,4.47,24,24,0,0,1,2.45,5.2q.9,2.73,1.53,5.37t1.15,5.05a28,28,0,0,0,1.22,4.25,8.58,8.58,0,0,0,1.78,2.93,3.87,3.87,0,0,0,2.89,1.1,13.56,13.56,0,0,0,3.63-.56,25,25,0,0,0,4.06-1.59,31.81,31.81,0,0,0,4.1-2.44,30.79,30.79,0,0,0,3.78-3.13l5.67,9.57a5.67,5.67,0,0,0-.93.61c-.62.44-1.48,1-2.59,1.66s-2.42,1.4-3.93,2.2a44.47,44.47,0,0,1-10.79,3.93,28.19,28.19,0,0,1-6.23.69,10.38,10.38,0,0,1-6.08-1.76,15.29,15.29,0,0,1-4.27-4.64,30,30,0,0,1-2.93-6.57q-1.17-3.69-2.05-7.54c-.59-2.57-1.13-5.09-1.64-7.55a61.57,61.57,0,0,0-1.68-6.56,16.59,16.59,0,0,0-2.2-4.64,3.78,3.78,0,0,0-3.17-1.76h-3.08q-1,10.69-2.44,19.16a69.81,69.81,0,0,1-3.88,14.38,23.27,23.27,0,0,1-6.06,9,13.2,13.2,0,0,1-8.91,3.12,16.83,16.83,0,0,1-7.15-1.49,20.38,20.38,0,0,1-5.86-4.07,27.5,27.5,0,0,1-4.56-6.06,40.16,40.16,0,0,1-3.25-7.44,52.19,52.19,0,0,1-1.95-8.23,55,55,0,0,1-.66-8.45A58.58,58.58,0,0,1,296,268.47a58.9,58.9,0,0,1,14-25.54,56.27,56.27,0,0,1,11.3-9.32,54.79,54.79,0,0,1,29.32-8.33,38.77,38.77,0,0,1,7.28.69,36.16,36.16,0,0,1,6.88,2,30.84,30.84,0,0,1,6.08,3.27,23,23,0,0,1,4.83,4.47,20.36,20.36,0,0,1,3.2,5.59A18.66,18.66,0,0,1,380.08,248Zm-30.32-11.77a42.77,42.77,0,0,0-14.38,2.25,38.08,38.08,0,0,0-11.11,6.05,38.86,38.86,0,0,0-8.15,8.84,52.1,52.1,0,0,0-5.47,10.55,58.14,58.14,0,0,0-3,11.18,64.51,64.51,0,0,0-1,10.79,46.24,46.24,0,0,0,.68,7.93,28.19,28.19,0,0,0,2.15,7.16,14.83,14.83,0,0,0,3.78,5.15,8.33,8.33,0,0,0,5.59,2,4,4,0,0,0,2.93-1.3,11.7,11.7,0,0,0,2.25-3.47,31.24,31.24,0,0,0,1.71-5c.49-1.91.89-3.89,1.22-5.94s.58-4.11.78-6.2.35-4,.46-5.86.19-3.44.22-4.86.05-2.49.05-3.24a31.14,31.14,0,0,1-5.78-3.37,4.54,4.54,0,0,1-2-3.62,10.94,10.94,0,0,1,.07-1.17,4.73,4.73,0,0,1,.32-1.27,2.73,2.73,0,0,1,.71-1,1.82,1.82,0,0,1,1.24-.41c.23,0,.69,0,1.37.12s1.4.18,2.15.29,1.44.21,2.07.29a11.12,11.12,0,0,0,1.25.13l.05-1c0-.52.09-1.24.17-2.15s.22-1.88.41-2.93a21.13,21.13,0,0,1,.86-3.15,11.56,11.56,0,0,1,1.49-2.88,7.91,7.91,0,0,1,2.22-2.1,5.9,5.9,0,0,1,3.15-.8c1.62,0,2.71.36,3.25,1.1a4.66,4.66,0,0,1,.8,2.8v.44a36.72,36.72,0,0,1-.56,4.91q-.51,3.06-1,7.06a53.86,53.86,0,0,0,13.13-1.59,25.52,25.52,0,0,0,8.2-3.64,12.72,12.72,0,0,0,4.25-4.81,11.79,11.79,0,0,0,1.22-5.05,9.81,9.81,0,0,0-1.14-4.59,11.51,11.51,0,0,0-3.4-3.88,17.67,17.67,0,0,0-5.56-2.69A26.78,26.78,0,0,0,349.76,236.22Z"/><path class="cls-1" d="M410,299.26a44.93,44.93,0,0,1-4.37,3.44,48.58,48.58,0,0,1-5.64,3.37,43.33,43.33,0,0,1-6.18,2.56,19.14,19.14,0,0,1-6,1,11.34,11.34,0,0,1-4.27-.71,7,7,0,0,1-2.81-2,7.54,7.54,0,0,1-1.54-3.1,16.34,16.34,0,0,1-.46-4,42.58,42.58,0,0,1,.7-7.15c.48-2.72,1.05-5.53,1.74-8.45s1.41-5.82,2.17-8.71,1.44-5.57,2-8a4.28,4.28,0,0,1,1.36-2.17,8.87,8.87,0,0,1,2.32-1.47,13.92,13.92,0,0,1,5.2-1.1,3.91,3.91,0,0,1,2.79.76,2.78,2.78,0,0,1,.73,2,14.18,14.18,0,0,1-.49,3.1c-.32,1.35-.73,2.88-1.22,4.59s-1,3.55-1.56,5.51-1.08,3.94-1.56,5.91-.9,3.89-1.23,5.76a30.41,30.41,0,0,0-.48,5.06,10.31,10.31,0,0,0,.48,3.49,2,2,0,0,0,2,1.29,8,8,0,0,0,3.9-1.22,35.57,35.57,0,0,0,4.35-2.95c1.46-1.16,2.9-2.35,4.3-3.59s2.63-2.3,3.71-3.17Zm-21.83-50.2a8.21,8.21,0,0,1,2.08-5.2,8.69,8.69,0,0,1,2.93-2.1,10.76,10.76,0,0,1,4.56-.85,12.86,12.86,0,0,1,3.22.39,8,8,0,0,1,2.64,1.19,5.72,5.72,0,0,1,1.78,2.13,6.9,6.9,0,0,1,.66,3.12,9.82,9.82,0,0,1-.54,3.23,7.36,7.36,0,0,1-1.7,2.78,9,9,0,0,1-3,2,11,11,0,0,1-4.27.75c-2.87,0-5-.67-6.35-2A7.24,7.24,0,0,1,388.14,249.06Z"/><path class="cls-1" d="M426.67,304.53a25.72,25.72,0,0,1-5.5,3.78,12.15,12.15,0,0,1-5.54,1.45,11.38,11.38,0,0,1-4.56-1,11.73,11.73,0,0,1-3.94-2.73,13.31,13.31,0,0,1-2.73-4.35,15.5,15.5,0,0,1-1-5.78,29.38,29.38,0,0,1,1-7.52,41.33,41.33,0,0,1,2.83-7.55,43.78,43.78,0,0,1,4.27-6.95,34.33,34.33,0,0,1,5.4-5.72,26.38,26.38,0,0,1,6.18-3.88,16.15,16.15,0,0,1,6.61-1.44,3.07,3.07,0,0,1,1.76.44,4.56,4.56,0,0,1,1.05,1l.81,1.1a2.22,2.22,0,0,0,1,.78,4.63,4.63,0,0,0,1.2.32,10.19,10.19,0,0,0,1.24.07l1.1,0,1.1,0a6,6,0,0,1,1.37.15,2.33,2.33,0,0,1,1.12.63,3.21,3.21,0,0,1,.76,1.37,8.44,8.44,0,0,1,.27,2.39c0,.85-.07,2-.2,3.42s-.31,3-.54,4.79-.48,3.62-.75,5.59-.56,3.9-.86,5.78q-1,6.75-2.34,14.41a36.06,36.06,0,0,0,3.17-2.05,34.76,34.76,0,0,0,3.81-3.27q2.1-2.06,4.69-5.16t5.81-7.74l2.34,10.84a19.52,19.52,0,0,1-2.27,3.11c-.92,1.05-1.95,2.11-3.07,3.17s-2.3,2.08-3.52,3.08-2.42,1.92-3.59,2.8c-2.76,2.09-5.74,4.1-8.93,6.06q-.93,5.22-2.2,10.18a77.07,77.07,0,0,1-3,9.28,52.84,52.84,0,0,1-4,7.93,28.92,28.92,0,0,1-5,6.2,21.07,21.07,0,0,1-6.27,4,19.81,19.81,0,0,1-7.67,1.44,20.45,20.45,0,0,1-3.59-.34,10,10,0,0,1-3.56-1.37,8,8,0,0,1-2.71-2.93,10.27,10.27,0,0,1-1.08-5.08,13.33,13.33,0,0,1,1.13-4.95,36.2,36.2,0,0,1,3.07-5.81,70.27,70.27,0,0,1,4.64-6.35q2.69-3.3,5.84-6.57t6.59-6.44q3.44-3.18,7-6.06Zm-18,41.07a7,7,0,0,0,3.88-1.2,14.41,14.41,0,0,0,3.37-3.15,27.41,27.41,0,0,0,2.81-4.44A50.38,50.38,0,0,0,421,331.7c.65-1.74,1.21-3.44,1.66-5.1s.82-3.14,1.08-4.44a34.17,34.17,0,0,0-3.88,3q-2,1.77-3.86,3.79c-1.26,1.35-2.44,2.74-3.57,4.17s-2.1,2.81-2.95,4.13a25.41,25.41,0,0,0-2,3.69,7.5,7.5,0,0,0-.73,2.83C406.7,345,407.35,345.6,408.65,345.6Zm7.22-51.76a15.37,15.37,0,0,0,.18,2.37,6.82,6.82,0,0,0,.61,2.05,4,4,0,0,0,1.17,1.46,2.91,2.91,0,0,0,1.85.56,4.39,4.39,0,0,0,3.27-1.56,14.85,14.85,0,0,0,2.54-3.76,26.57,26.57,0,0,0,1.74-4.54,27.16,27.16,0,0,0,.85-3.91l3-14.35a8.3,8.3,0,0,0-3.91,1,14.52,14.52,0,0,0-3.58,2.71,24.43,24.43,0,0,0-3.11,3.9,31.82,31.82,0,0,0-2.44,4.62,29,29,0,0,0-1.58,4.86A20.27,20.27,0,0,0,415.87,293.84Z"/><path class="cls-1" d="M468.66,279.29q2-2.64,4.49-5.67a68.45,68.45,0,0,1,5.18-5.64,35.47,35.47,0,0,1,5.34-4.34,9.26,9.26,0,0,1,5-1.74,4.91,4.91,0,0,1,1.32.22,3.83,3.83,0,0,1,1.39.81,4.58,4.58,0,0,1,1.1,1.63,7.21,7.21,0,0,1,.44,2.71,22.7,22.7,0,0,1-.93,6.47q-.93,3.15-2,6.3t-2,6.42a25.72,25.72,0,0,0-.9,6.84,7.11,7.11,0,0,0,.58,3.13,1.74,1.74,0,0,0,1.52,1.17,7.32,7.32,0,0,0,2.49-.49,17.07,17.07,0,0,0,2.63-1.27,23.43,23.43,0,0,0,2.59-1.78c.85-.67,1.64-1.36,2.39-2.08a57,57,0,0,0,5.28-5.66l.83,13L503.16,301c-.9.68-1.89,1.4-3,2.17s-2.27,1.54-3.54,2.32a37.8,37.8,0,0,1-3.84,2.07,29,29,0,0,1-3.85,1.49,12.76,12.76,0,0,1-3.69.59,7.68,7.68,0,0,1-4.66-1.44,11.59,11.59,0,0,1-3.25-3.66,18.42,18.42,0,0,1-1.9-4.86,21,21,0,0,1-.64-5,16.51,16.51,0,0,1,.42-3.49c.27-1.29.61-2.58,1-3.89s.86-2.57,1.37-3.81,1-2.34,1.41-3.32.83-1.77,1.15-2.39a6.61,6.61,0,0,1,.64-1.07l-1-.15a18.74,18.74,0,0,0-2.81,2.74c-1.32,1.46-2.8,3.31-4.46,5.54s-3.38,4.73-5.16,7.52a85.38,85.38,0,0,0-4.81,8.62c-.71,1.46-1.3,2.74-1.75,3.83a18.93,18.93,0,0,1-1.35,2.68,5.36,5.36,0,0,1-1.44,1.59,4,4,0,0,1-4.54-.39,5.88,5.88,0,0,1-1.41-2.47,15.08,15.08,0,0,1-.64-3.49c-.1-1.3-.14-2.63-.14-4q0-3.27.07-8.57t.46-11.74q.39-6.45,1.13-13.58T455,250.8a116.23,116.23,0,0,1,3.37-13.29,52.39,52.39,0,0,1,4.93-11.13,25.81,25.81,0,0,1,6.81-7.64,14.92,14.92,0,0,1,9-2.83,10.33,10.33,0,0,1,4.32.78,6.53,6.53,0,0,1,2.68,2.2,8.79,8.79,0,0,1,1.4,3.39,22.93,22.93,0,0,1,.39,4.42,35.75,35.75,0,0,1-1,8,84.84,84.84,0,0,1-2.71,9.13q-1.68,4.74-3.83,9.59t-4.4,9.43q-2.24,4.56-4.42,8.61c-1.44,2.71-2.72,5.08-3.83,7.13ZM473,249.11a113,113,0,0,0,4.18-12.6,34.7,34.7,0,0,0,1.29-7.57c0-2.47-.32-3.71-1-3.71-.85,0-2.1,1.39-3.76,4.15a103,103,0,0,0-5.86,12.06c-.56,1.8-1.07,3.65-1.54,5.57s-.9,3.83-1.27,5.74-.72,3.77-1,5.61-.57,3.59-.8,5.25Q462.4,269.43,462,275l2.88-6.69q1.56-3.62,3.08-7.15c1-2.36,2-4.59,2.85-6.69S472.42,250.58,473,249.11Z"/><path class="cls-1" d="M542.49,298.72q-4.69,2.73-8.35,4.79c-2.44,1.36-4.62,2.5-6.52,3.41a36.21,36.21,0,0,1-5.08,2.05,13.69,13.69,0,0,1-4,.69,10.22,10.22,0,0,1-6.54-2.25,16.92,16.92,0,0,1-4.74-6.47,40,40,0,0,1-2.85-10.23,86.15,86.15,0,0,1-1-13.52q0-2.94.25-6.25c.16-2.22.39-4.41.68-6.59-1-.13-1.73-.26-2.27-.37l-1.71-.34c-.6-.12-1.37-.24-2.29-.37s-2.27-.29-4-.49a4.34,4.34,0,0,1-1.81-.56,2.7,2.7,0,0,1-.93-1,3.22,3.22,0,0,1-.34-1.17c0-.4-.05-.75-.05-1.05a1.62,1.62,0,0,1,1-1.49,7.73,7.73,0,0,1,2.44-.75,20.4,20.4,0,0,1,3.27-.27c1.19,0,2.33,0,3.42,0s2.06.06,2.93.08a9.73,9.73,0,0,0,1.78-.08,111.13,111.13,0,0,1,3.34-12.77,73.11,73.11,0,0,1,4.54-11,30.32,30.32,0,0,1,5.5-7.72,8.93,8.93,0,0,1,6.25-2.9,6.7,6.7,0,0,1,3.83,1.17,10.16,10.16,0,0,1,3,3.12A15.88,15.88,0,0,1,534,231a22.15,22.15,0,0,1,.66,5.44,20.17,20.17,0,0,1-.68,5.06,37.85,37.85,0,0,1-1.86,5.42,58.77,58.77,0,0,1-2.75,5.59q-1.59,2.83-3.35,5.61c.29,0,.78.06,1.47.08s1.47,0,2.36.07l2.91.12,3,.12,2.73.1,2.1.1a1.58,1.58,0,0,1,1.42,1,5.52,5.52,0,0,1,.44,2.34,4,4,0,0,1-1,2.78,2.87,2.87,0,0,1-2.15,1.08H520.61c-.94,1.3-1.9,2.58-2.86,3.83s-1.84,2.39-2.66,3.39q-.2,3-.34,6c0,.85-.06,1.72-.1,2.61s-.06,1.79-.09,2.66-.06,1.73-.08,2.54,0,1.57,0,2.25a17,17,0,0,0,.49,4.44,7.85,7.85,0,0,0,1.41,3,5.38,5.38,0,0,0,2.27,1.66,8.45,8.45,0,0,0,3,.51,8.7,8.7,0,0,0,2.56-.49,27,27,0,0,0,3.37-1.34c1.22-.57,2.5-1.25,3.86-2s2.68-1.63,4-2.56,2.58-1.91,3.78-2.93a36.65,36.65,0,0,0,3.28-3.15ZM526.86,236.9a10.59,10.59,0,0,0-.07-1.19,4.69,4.69,0,0,0-.32-1.25,2.25,2.25,0,0,0-.76-1,2.33,2.33,0,0,0-1.44-.39c-.84,0-1.7.74-2.56,2.24a33.67,33.67,0,0,0-2.49,5.74q-1.2,3.49-2.25,7.69T515,256.92c.49.07,1,.13,1.47.17l1.51.18c1-1.67,2-3.46,3.05-5.4s2-3.84,2.86-5.71a56.19,56.19,0,0,0,2.1-5.25A13.15,13.15,0,0,0,526.86,236.9Z"/><path class="cls-1" d="M175.76,152.87a47.89,47.89,0,0,1,10.4-12.63,72,72,0,0,1,6.53-5.14c2.28-1.57,4.62-3,7-4.42,4.77-2.75,9.66-5.14,14.52-7.34,2.41-1.13,4.95-2.23,7.73-3.23a43.57,43.57,0,0,1,9.15-2.34,31.56,31.56,0,0,1,10.75.28,26.91,26.91,0,0,1,10.82,4.81,22.81,22.81,0,0,1,7.92,10.65,29.81,29.81,0,0,1,1.56,11.87,57.33,57.33,0,0,1-1.43,9.45c-.31,1.38-.63,2.72-.93,3.94-.17.67-.25,1.11-.36,1.62s-.19,1-.26,1.46a20.74,20.74,0,0,0-.29,5.1,5.22,5.22,0,0,0,.54,2.27c0,.06,0,0,0,.07s0,0,.13.07a3.69,3.69,0,0,0,.92.17,11.75,11.75,0,0,0,1.95-.09,33.49,33.49,0,0,0,5.75-1.36l3.58-1.16c1.24-.42,2.49-.82,3.75-1.21,5-1.57,10-3.21,15-4.67l7.55-2.25,7.6-2.13c10.14-2.79,20.36-5.4,30.69-7.68,5.17-1.13,10.35-2.22,15.59-3.17s10.48-1.85,15.83-2.48c-4.51,2.94-9.11,5.64-13.74,8.25s-9.31,5.11-14,7.56c-9.39,4.87-18.9,9.42-28.47,13.78l-7.2,3.23-7.24,3.12c-4.81,2.11-9.69,4-14.54,6.06-1.21.5-2.43,1-3.65,1.47l-1.83.73-2,.77a53.08,53.08,0,0,1-9.44,2.63,33.08,33.08,0,0,1-5.89.43,26,26,0,0,1-6.83-1.07,23.41,23.41,0,0,1-6.83-3.5,23,23,0,0,1-5.27-5.69,24.52,24.52,0,0,1-2.89-6.53,29.34,29.34,0,0,1-1-6.12,41.73,41.73,0,0,1,.81-10.55c.16-.81.35-1.6.54-2.39s.42-1.61.59-2.2l1.06-3.67a50.79,50.79,0,0,0,1.4-6,11.12,11.12,0,0,0,.07-3.67,4.05,4.05,0,0,0-1-2.06,8.62,8.62,0,0,0-3.22-2,13.29,13.29,0,0,0-4.87-.91,34.31,34.31,0,0,0-6.3.5c-2.28.38-4.71.95-7.27,1.51-5.07,1.17-10.08,2.27-15,3.62C194,143.2,184.59,146.67,175.76,152.87Z"/></g></g></svg>